<svg width="12" height="12" viewBox="0 0 12 12" fill="none" xmlns="http://www.w3.org/2000/svg">
<path d="M5.39608 0.726209H5.14608V0.976601L5.39647 0.976209L5.39608 0.726209ZM8.55638 0.76301L8.5678 0.513271L8.56773 0.513268L8.55638 0.76301ZM9.74466 0.983412L9.83517 0.750372L9.83515 0.750364L9.74466 0.983412ZM10.4801 1.46208L10.3033 1.63881L10.3034 1.63886L10.4801 1.46208ZM10.9591 2.19809L11.1921 2.10751L11.192 2.1074L10.9591 2.19809ZM11.1795 3.3861L11.4292 3.37475L11.4292 3.37474L11.1795 3.3861ZM11.1795 8.55683L11.4292 8.56824L11.4292 8.56818L11.1795 8.55683ZM10.9591 9.74484L10.7261 9.65425L10.726 9.65433L10.9591 9.74484ZM10.4801 10.48L10.3034 10.3032L10.3034 10.3033L10.4801 10.48ZM9.74466 10.9587L9.65418 10.7257L9.65371 10.7258L9.74466 10.9587ZM8.55638 11.1793L8.56773 11.429L8.5678 11.429L8.55638 11.1793ZM3.38406 11.1793L3.37253 11.429L3.3727 11.429L3.38406 11.1793ZM2.19564 10.9586L2.10513 11.1916L2.1052 11.1916L2.19564 10.9586ZM0.980698 9.7443L0.747687 9.83489L0.747715 9.83496L0.980698 9.7443ZM0.760296 8.55629L0.510554 8.56764L0.510554 8.56766L0.760296 8.55629ZM0.760296 3.3845L0.510557 3.37308L0.510554 3.37315L0.760296 3.3845ZM0.980698 2.19622L0.747658 2.10571L0.747651 2.10573L0.980698 2.19622ZM2.19564 0.981279L2.28634 1.21425L2.28649 1.21419L2.19564 0.981279ZM3.38406 0.76061L3.37278 0.510864L3.37258 0.510873L3.38406 0.76061ZM5.39608 0.724609H5.64608V0.47433L5.3958 0.47461L5.39608 0.724609ZM5.39647 0.976209C5.56664 0.975943 5.75609 0.976209 5.97022 0.976209V0.476209C5.75713 0.476209 5.56632 0.475943 5.39569 0.47621L5.39647 0.976209ZM5.97022 0.976209C7.67808 0.976209 7.87605 0.98235 8.54503 1.01275L8.56773 0.513268C7.8871 0.482336 7.67999 0.476209 5.97022 0.476209V0.976209ZM8.54496 1.01275C9.14138 1.04002 9.45337 1.13849 9.65416 1.21646L9.83515 0.750364C9.58473 0.653129 9.21939 0.543066 8.5678 0.513271L8.54496 1.01275ZM9.65415 1.21645C9.92078 1.32001 10.1042 1.43962 10.3033 1.63881L10.657 1.28536C10.4083 1.03654 10.1659 0.878816 9.83517 0.750372L9.65415 1.21645ZM10.3034 1.63886C10.5025 1.838 10.6222 2.0219 10.7261 2.28878L11.192 2.1074C11.0634 1.77694 10.9058 1.53417 10.6569 1.28531L10.3034 1.63886ZM10.7261 2.28868C10.804 2.48916 10.9026 2.80111 10.9297 3.39747L11.4292 3.37474C11.3996 2.72309 11.2893 2.35769 11.1921 2.10751L10.7261 2.28868ZM10.9297 3.39746C10.9601 4.06639 10.9668 4.26457 10.9668 5.97146H11.4668C11.4668 4.26232 11.4601 4.05516 11.4292 3.37475L10.9297 3.39746ZM10.9668 5.97146C10.9668 7.67836 10.9601 7.87654 10.9297 8.54547L11.4292 8.56818C11.4601 7.88777 11.4668 7.6806 11.4668 5.97146H10.9668ZM10.9297 8.54541C10.9025 9.14185 10.804 9.45381 10.7261 9.65425L11.1921 9.83542C11.2894 9.58519 11.3994 9.21981 11.4292 8.56824L10.9297 8.54541ZM10.726 9.65433C10.6226 9.92075 10.5027 10.104 10.3034 10.3032L10.6569 10.6569C10.9055 10.4084 11.0636 10.1663 11.1921 9.83535L10.726 9.65433ZM10.3034 10.3033C10.1041 10.5026 9.92085 10.6221 9.65418 10.7257L9.83513 11.1918C10.1661 11.0633 10.4082 10.9055 10.6569 10.6568L10.3034 10.3033ZM9.65371 10.7258C9.45367 10.804 9.14158 10.9022 8.54496 10.9295L8.5678 11.429C9.21918 11.3992 9.58498 11.2895 9.8356 11.1916L9.65371 10.7258ZM8.54503 10.9295C7.87609 10.9599 7.67791 10.9666 5.97022 10.9666V11.4666C7.68015 11.4666 7.88732 11.4599 8.56773 11.429L8.54503 10.9295ZM5.97022 10.9666C4.26239 10.9666 4.06434 10.9599 3.39541 10.9295L3.3727 11.429C4.05312 11.4599 4.26015 11.4666 5.97022 11.4666V10.9666ZM3.39558 10.9295C2.79912 10.902 2.48707 10.8035 2.28609 10.7255L2.1052 11.1916C2.35569 11.2889 2.72098 11.3989 3.37253 11.429L3.39558 10.9295ZM2.28616 10.7255C2.0194 10.6219 1.83555 10.5023 1.63641 10.3031L1.28286 10.6567C1.53173 10.9056 1.77455 11.0632 2.10513 11.1916L2.28616 10.7255ZM1.63641 10.3031C1.43716 10.1039 1.31751 9.92048 1.21368 9.65365L0.747715 9.83496C0.876421 10.1657 1.03411 10.4079 1.28286 10.6567L1.63641 10.3031ZM1.21371 9.65372C1.13577 9.45323 1.03718 9.14129 1.01004 8.54493L0.510554 8.56766C0.540213 9.21931 0.650426 9.5847 0.747687 9.83489L1.21371 9.65372ZM1.01004 8.54494C0.979636 7.87609 0.973495 7.678 0.973495 5.96986H0.473495C0.473495 7.6799 0.479622 7.88714 0.510554 8.56764L1.01004 8.54494ZM0.973495 5.96986C0.973495 4.26174 0.979636 4.06471 1.01004 3.39586L0.510554 3.37315C0.479622 4.05365 0.473495 4.25982 0.473495 5.96986H0.973495ZM1.01003 3.39592C1.03731 2.7995 1.13578 2.48751 1.21375 2.28672L0.747651 2.10573C0.650415 2.35615 0.540352 2.7215 0.510557 3.37308L1.01003 3.39592ZM1.21374 2.28674C1.31729 2.02011 1.43718 1.83623 1.63641 1.63699L1.28286 1.28344C1.03409 1.53221 0.876104 1.775 0.747658 2.10571L1.21374 2.28674ZM1.63641 1.63699C1.83555 1.43786 2.01945 1.31814 2.28634 1.21425L2.10495 0.748309C1.7745 0.87695 1.53173 1.03457 1.28286 1.28344L1.63641 1.63699ZM2.28649 1.21419C2.48691 1.13601 2.79891 1.03776 3.39553 1.01035L3.37258 0.510873C2.72119 0.540798 2.35559 0.650544 2.10479 0.748371L2.28649 1.21419ZM3.39534 1.01036C3.98101 0.983902 4.20596 0.97594 5.39636 0.974609L5.3958 0.47461C4.20057 0.475946 3.96792 0.483984 3.37278 0.510864L3.39534 1.01036ZM5.14608 0.724609V0.726209H5.64608V0.724609H5.14608ZM8.84129 2.08434C8.27936 2.08434 7.82328 2.53973 7.82328 3.10208H8.32328C8.32328 2.81616 8.55522 2.58434 8.84129 2.58434V2.08434ZM7.82328 3.10208C7.82328 3.66416 8.27921 4.12009 8.84129 4.12009V3.62009C8.55536 3.62009 8.32328 3.38801 8.32328 3.10208H7.82328ZM8.84129 4.12009C9.40337 4.12009 9.8593 3.66416 9.8593 3.10208H9.3593C9.3593 3.38801 9.12722 3.62009 8.84129 3.62009V4.12009ZM9.8593 3.10208C9.8593 2.53989 9.40325 2.08434 8.84129 2.08434V2.58434C9.12734 2.58434 9.3593 2.81626 9.3593 3.10208H9.8593ZM5.97031 4.08967C7.01039 4.08967 7.85367 4.93282 7.85367 5.97302H8.35367C8.35367 4.65666 7.28652 3.58967 5.97031 3.58967V4.08967ZM7.85367 5.97302C7.85367 7.0131 7.01038 7.85638 5.97031 7.85638V8.35638C7.28653 8.35638 8.35367 7.28924 8.35367 5.97302H7.85367ZM5.97031 7.85638C4.93011 7.85638 4.08695 7.01311 4.08695 5.97302H3.58695C3.58695 7.28923 4.65395 8.35638 5.97031 8.35638V7.85638ZM4.08695 5.97302C4.08695 4.93281 4.9301 4.08967 5.97031 4.08967V3.58967C4.65396 3.58967 3.58695 4.65667 3.58695 5.97302H4.08695Z" fill="#422362"/>
</svg>
