<svg width="73" height="54" viewBox="0 0 73 54" fill="none" xmlns="http://www.w3.org/2000/svg">
<path fill-rule="evenodd" clip-rule="evenodd" d="M72.3857 18.8754L63.1254 4.98914C63.0324 4.84926 62.8993 4.73328 62.7394 4.65276C62.5795 4.57225 62.3984 4.53001 62.2142 4.53027H10.8493C10.665 4.53001 10.4839 4.57225 10.324 4.65276C10.1641 4.73328 10.0311 4.84926 9.93804 4.98914L0.674798 18.8754C0.56077 19.0467 0.512223 19.2457 0.536288 19.4431C0.560354 19.6405 0.655763 19.8259 0.8085 19.972L35.7513 53.4822C35.8503 53.5772 35.9706 53.6531 36.1048 53.705C36.2389 53.7569 36.3838 53.7837 36.5303 53.7837C36.6768 53.7837 36.8217 53.7569 36.9558 53.705C37.0899 53.6531 37.2103 53.5772 37.3092 53.4822L72.252 19.972C72.4048 19.8259 72.5002 19.6405 72.5243 19.4431C72.5483 19.2457 72.4998 19.0467 72.3857 18.8754ZM61.0632 6.38748L51.3814 18.8523L38.0112 6.38748H61.0632ZM35.0494 6.38748L21.6791 18.8523L11.9974 6.38748H35.0494ZM11.3099 6.60221L20.9685 19.0351H3.01749L11.3099 6.60221ZM3.34158 19.655H21.3957L28.1337 34.7534L29.0043 35.093L22.1427 19.3994L36.0173 6.38748H37.0433L51.0631 19.3994L45.9375 30.8847V32.3231L51.6648 19.655H69.719L38.2539 49.8343L43.5386 37.8641L42.586 38.4175L36.9357 51.0984L36.5303 51.4819L36.1248 51.0984L31.2106 39.9574L30.29 39.6366L34.8067 49.8292L3.34158 19.655ZM52.0921 19.0415L61.7506 6.6086L70.043 19.0415H52.0921Z" fill="#999999"/>
<path d="M44.4561 19.1309C44.4561 20.7246 43.9521 22.0664 42.9443 23.1562C41.9482 24.2461 40.6064 24.9434 38.9189 25.248V25.3535C40.9814 25.6113 42.5518 26.2676 43.6299 27.3223C44.708 28.377 45.2471 29.7949 45.2471 31.5762C45.2471 33.9785 44.4268 35.8418 42.7861 37.166C41.1572 38.4785 38.8076 39.1348 35.7373 39.1348C33.124 39.1348 30.8447 38.6484 28.8994 37.6758V35.9355C29.8838 36.4512 30.9854 36.8555 32.2041 37.1484C33.4346 37.4414 34.5889 37.5879 35.667 37.5879C38.2568 37.5879 40.2021 37.0664 41.5029 36.0234C42.8037 34.9688 43.4541 33.4863 43.4541 31.5762C43.4541 29.877 42.7861 28.5703 41.4502 27.6562C40.126 26.7422 38.1748 26.2852 35.5967 26.2852H32.8193V24.5977H35.6318C37.7646 24.5977 39.4521 24.0938 40.6943 23.0859C41.9482 22.0664 42.5752 20.6895 42.5752 18.9551C42.5752 17.5254 42.0654 16.3828 41.0459 15.5273C40.0381 14.6602 38.7139 14.2266 37.0732 14.2266C35.7959 14.2266 34.6299 14.4082 33.5752 14.7715C32.5205 15.123 31.3369 15.7324 30.0244 16.5996L29.1631 15.4219C30.1592 14.5898 31.3604 13.9336 32.7666 13.4531C34.1729 12.9609 35.5967 12.7148 37.0381 12.7148C39.4053 12.7148 41.2334 13.2773 42.5225 14.4023C43.8115 15.5156 44.4561 17.0918 44.4561 19.1309Z" fill="#999999"/>
</svg>
