<svg width="15" height="11" viewBox="0 0 15 11" fill="none" xmlns="http://www.w3.org/2000/svg">
<path d="M14.8497 2.46304C14.8497 2.4152 14.6995 1.36304 14.2237 0.86087C13.6477 0.263053 13.0217 0.191314 12.6962 0.167382H12.596C10.5676 0.0239037 7.53761 0 7.48751 0C7.46248 0 4.40738 0.0239037 2.40403 0.215218H2.32891C1.97829 0.239121 1.35225 0.310861 0.801345 0.908678C0.300501 1.41085 0.15025 2.48694 0.15025 2.53478C0.15025 2.53478 0 3.75434 0 4.97391V6.09783C0 7.29349 0.15025 8.51306 0.15025 8.53696C0.15025 8.5848 0.300501 9.63696 0.776284 10.1391C1.30216 10.713 1.92819 10.7848 2.32888 10.8326C2.40401 10.8326 2.4541 10.8326 2.52922 10.8565C3.68113 10.9522 7.33723 11 7.48748 11C7.51252 11 10.5676 11 12.596 10.7848H12.6711C13.0217 10.7609 13.6477 10.6891 14.1987 10.0913C14.6995 9.58912 14.8497 8.51303 14.8497 8.4652C14.8497 8.4652 15 7.24563 15 6.02606V4.90217C15 3.70651 14.8497 2.48694 14.8497 2.46304ZM14.4992 6.0739C14.4992 7.26956 14.3489 8.4652 14.3489 8.4652C14.2988 8.72825 14.1486 9.49345 13.823 9.82824C13.3973 10.3065 12.8965 10.3543 12.621 10.3783H12.5459C10.5426 10.5217 7.51252 10.5217 7.48748 10.5217C7.46245 10.5217 3.70619 10.4739 2.60435 10.3543C2.52922 10.3543 2.4541 10.3304 2.37897 10.3304C2.02838 10.3065 1.52756 10.2348 1.12688 9.80437C0.826377 9.49351 0.651095 8.72828 0.626033 8.46523C0.626033 8.44132 0.475783 7.24566 0.475783 6.07393V4.95001C0.475783 3.75434 0.626033 2.55871 0.626033 2.55871C0.651065 2.29565 0.826377 1.53045 1.12688 1.19566C1.57763 0.717392 2.05341 0.669556 2.35391 0.645653H2.42904C4.43238 0.502174 7.46242 0.478271 7.48745 0.478271C7.51249 0.478271 10.5426 0.502174 12.5459 0.645653H12.646C12.9215 0.669556 13.4223 0.717392 13.848 1.19566C14.1485 1.53045 14.2988 2.29565 14.3489 2.55871C14.3739 2.60654 14.4991 3.80218 14.4991 4.95001L14.4992 6.0739Z" fill="#571668"/>
<path d="M10.6178 5.52391L5.85987 2.86956C5.78475 2.82173 5.68459 2.82173 5.60946 2.86956C5.53434 2.9174 5.48424 2.98914 5.48424 3.08478V8.2739C5.48424 8.36955 5.53434 8.44129 5.60946 8.48912C5.65956 8.51303 5.68459 8.51303 5.73468 8.51303C5.78477 8.51303 5.80981 8.51303 5.8599 8.48912L10.6178 5.95435C10.6929 5.90651 10.743 5.83477 10.743 5.73913C10.743 5.64349 10.6929 5.57172 10.6178 5.52391ZM5.98509 7.86737V3.49128L9.99176 5.7391L5.98509 7.86737Z" fill="#571668"/>
</svg>
