<svg width="72" height="72" viewBox="0 0 72 72" fill="none" xmlns="http://www.w3.org/2000/svg">
<path d="M71.9019 14.789C70.9467 13.1842 69.4142 11.959 67.5846 11.3377C65.755 10.7163 63.7507 10.7402 61.9382 11.405C60.1705 12.0568 58.7564 13.2674 57.849 14.1353C57.3933 14.5692 56.9554 15.018 56.5174 15.4669C55.881 16.1187 55.28 16.7352 54.622 17.3088C52.6226 19.0501 50.0183 20.4339 46.8836 21.421C44.7028 22.1094 42.4456 22.5575 40.1567 22.7563C42.6055 21.5721 44.9235 20.159 47.0761 18.538C49.4565 16.7426 51.1005 15.0776 52.22 13.2711C53.6871 10.9338 54.243 8.37299 53.7775 6.07665C53.4423 4.31908 52.4755 2.72583 51.0415 1.56778C50.3118 0.987369 49.4659 0.552747 48.5546 0.289997C47.6434 0.0272484 46.6855 -0.0582107 45.7385 0.0387491C44.0927 0.224989 42.4566 1.05189 41.1328 2.34626C40.0918 3.36127 39.2355 4.63329 38.4342 6.35228C37.1438 9.12353 36.4505 12.0829 36.0262 14.7443C35.6 12.0829 34.9067 9.11795 33.6202 6.35228C32.8209 4.63329 31.9626 3.36127 30.9236 2.34626C29.5919 1.05189 27.9559 0.232439 26.3119 0.0387491C25.365 -0.0582107 24.4071 0.0272484 23.4958 0.289997C22.5846 0.552747 21.7387 0.987369 21.0089 1.56778C19.5735 2.72556 18.6048 4.31864 18.2671 6.07665C17.8055 8.37299 18.3594 10.9338 19.8266 13.2711C20.9559 15.0776 22.59 16.7426 24.9783 18.538C27.1301 20.1586 29.4475 21.5711 31.8958 22.7544C29.6076 22.5562 27.351 22.1088 25.1708 21.421C22.0283 20.4339 19.4318 19.0501 17.4324 17.3088C16.7744 16.7352 16.1734 16.1187 15.537 15.4669C15.0971 15.018 14.6591 14.5692 14.2034 14.1353C13.298 13.2748 11.8878 12.0568 10.1162 11.405C8.30272 10.7381 6.29658 10.7132 4.46526 11.3347C2.63395 11.9561 1.10008 13.1824 0.144612 14.789C0.0795032 14.8802 0.035018 14.9833 0.0139533 15.0917C-0.0071113 15.2001 -0.00429975 15.3115 0.0222112 15.4188C0.0487222 15.5261 0.0983591 15.627 0.168001 15.7152C0.237643 15.8035 0.325784 15.8771 0.426882 15.9315C0.527981 15.9859 0.639849 16.0198 0.755454 16.0312C0.87106 16.0426 0.987902 16.0312 1.09863 15.9977C1.20937 15.9642 1.31159 15.9094 1.39889 15.8366C1.48618 15.7638 1.55666 15.6747 1.60588 15.5749C2.36211 14.3036 3.57616 13.3332 5.02554 12.8417C6.47492 12.3502 8.06256 12.3704 9.49752 12.8986C10.621 13.3102 11.7326 14.0626 12.9975 15.2639C13.4374 15.6829 13.8617 16.1168 14.2859 16.5508C14.9203 17.2008 15.5744 17.8712 16.2834 18.4877C18.4576 20.3817 21.2662 21.881 24.6287 22.9407C26.275 23.459 27.9631 23.849 29.6764 24.1065H9.60358C8.78157 24.107 7.99335 24.4168 7.41192 24.9677C6.83049 25.5187 6.50335 26.2659 6.50231 27.0454V69.0388C6.50283 69.824 6.83201 70.5769 7.41755 71.1321C8.00309 71.6874 8.7971 71.9995 9.62518 72H62.4214C63.2491 71.999 64.0426 71.6866 64.6277 71.1315C65.2128 70.5763 65.5418 69.8237 65.5423 69.0388V27.0454C65.5418 26.2661 65.215 25.5189 64.6339 24.9679C64.0528 24.4168 63.2648 24.107 62.443 24.1065H42.3702C44.0828 23.8492 45.7703 23.4592 47.4159 22.9407C50.7784 21.881 53.587 20.3817 55.7632 18.4877C56.4722 17.8712 57.1262 17.2008 57.7567 16.5545C58.1809 16.1206 58.6032 15.6866 59.0451 15.2676C60.312 14.0626 61.4256 13.3102 62.5471 12.8986C63.981 12.372 65.567 12.3527 67.0147 12.8442C68.4625 13.3356 69.6751 14.305 70.4308 15.5749C70.5439 15.754 70.7263 15.8841 70.9391 15.9376C71.1518 15.9911 71.3782 15.9637 71.57 15.8612C71.7618 15.7588 71.9038 15.5893 71.9658 15.3891C72.0278 15.1888 72.0049 14.9734 71.9019 14.789ZM37.2989 17.955C37.6446 14.789 38.2594 10.6917 39.976 7.00785C40.6929 5.46951 41.4431 4.34462 42.3328 3.46929C43.3915 2.43566 44.6701 1.79313 45.935 1.63483C46.1272 1.61247 46.3207 1.60128 46.5144 1.6013C47.7725 1.61533 48.9871 2.04024 49.9534 2.80441C51.0813 3.72961 51.8433 4.99143 52.1139 6.38208C52.5067 8.30035 52.0196 10.4589 50.7626 12.4591C49.7433 14.085 48.2349 15.6252 46.0194 17.292C43.2439 19.3857 40.1839 21.1159 36.9218 22.436C37.0122 20.9349 37.1359 19.4319 37.2989 17.9457V17.955ZM21.278 12.4516C20.021 10.4514 19.5418 8.2929 19.9267 6.37463C20.1974 4.98398 20.9593 3.72216 22.0872 2.79696C23.0528 2.03292 24.2668 1.608 25.5243 1.59385C25.7174 1.59377 25.9102 1.60496 26.1018 1.62738C27.3686 1.77637 28.6551 2.42821 29.7058 3.46184C30.6015 4.3353 31.3537 5.46019 32.0627 7.0004C33.7793 10.6824 34.3941 14.7852 34.7397 17.9494C34.9028 19.4394 35.0265 20.9293 35.111 22.4304C31.8489 21.1103 28.7889 19.3801 26.0134 17.2864C23.7999 15.614 22.2974 14.0775 21.278 12.4516ZM44.7251 67.7835H27.3215V25.7063H44.7251V67.7835ZM27.3215 70.3909V68.5713H44.7251V70.3909H27.3215ZM9.60358 25.6933H26.4769V40.6856H8.19141V27.0454C8.19193 26.6904 8.34088 26.3501 8.6056 26.0991C8.87032 25.8481 9.22921 25.7068 9.60358 25.7063V25.6933ZM8.19141 69.0388V41.4864H26.4769V67.7835H11.3536C11.2416 67.7835 11.1342 67.8257 11.055 67.9008C10.9758 67.9759 10.9313 68.0777 10.9313 68.1839C10.9313 68.2901 10.9758 68.392 11.055 68.4671C11.1342 68.5422 11.2416 68.5844 11.3536 68.5844H26.4769V70.3909H9.62518C9.24628 70.3909 8.88278 70.2487 8.61412 69.9953C8.34546 69.742 8.19349 69.3981 8.19141 69.0388ZM62.4214 70.3909H45.5696V68.5713H60.1705C60.2825 68.5713 60.3899 68.5291 60.4691 68.454C60.5483 68.3789 60.5928 68.2771 60.5928 68.1709C60.5928 68.0647 60.5483 67.9629 60.4691 67.8878C60.3899 67.8127 60.2825 67.7705 60.1705 67.7705H45.5696V41.4864H63.8551V69.0388C63.8525 69.3979 63.7004 69.7415 63.4319 69.9948C63.1633 70.248 62.8001 70.3904 62.4214 70.3909ZM63.8551 27.038V40.6856H45.5696V25.7063H62.443C62.8173 25.7068 63.1762 25.8481 63.441 26.0991C63.7057 26.3501 63.8546 26.6904 63.8551 27.0454V27.038Z" fill="#422362"/>
<path d="M29.8846 31.311H38.3255C38.4316 31.311 38.5334 31.2688 38.6084 31.1937C38.6835 31.1186 38.7257 31.0168 38.7257 30.9106C38.7257 30.8044 38.6835 30.7026 38.6084 30.6275C38.5334 30.5524 38.4316 30.5103 38.3255 30.5103H29.8846C29.7784 30.5103 29.6766 30.5524 29.6016 30.6275C29.5265 30.7026 29.4844 30.8044 29.4844 30.9106C29.4844 31.0168 29.5265 31.1186 29.6016 31.1937C29.6766 31.2688 29.7784 31.311 29.8846 31.311Z" fill="#422362"/>
</svg>
