<svg width="73" height="71" viewBox="0 0 73 71" fill="none" xmlns="http://www.w3.org/2000/svg">
<path d="M72.4036 14.9511C72.4019 14.9495 72.4001 14.9477 72.3985 14.946L57.9971 0.544639C57.768 0.311966 57.4527 0.184754 57.1264 0.193005C56.8005 0.198855 56.4912 0.337169 56.2696 0.576292L51.8114 5.37676C51.3765 5.84511 51.3847 6.57208 51.8301 7.03037L52.1681 7.37796L50.3979 9.14813L47.6015 8.44966C45.0934 7.8358 42.4473 8.58738 40.6363 10.4281L35.5352 16.373L29.6078 10.4456C27.9181 8.74624 25.41 8.15383 23.1385 8.91726C23.0028 8.96286 22.8764 9.03187 22.7646 9.12113L22.4388 9.38365L21.6488 8.59383L23.2006 7.04207C23.6692 6.57373 23.6694 5.81405 23.201 5.34556L18.4001 0.544639C17.9317 0.0759933 17.1721 0.0758432 16.7036 0.544189L1.1016 16.1462C0.632951 16.6145 0.632801 17.3742 1.10115 17.8427L5.90207 22.6436C6.37041 23.1122 7.13009 23.1124 7.59873 22.6441L8.14119 22.1016L10.985 24.9454L10.2865 27.7419C9.67389 30.213 10.394 32.825 12.1863 34.6332L22.3522 45.0916V54.4737C22.3743 56.6248 23.5813 58.5882 25.4908 59.5789C26.5147 60.1237 27.154 61.1896 27.1527 62.3495V62.5991H25.9526C25.2901 62.5987 24.7529 63.1354 24.7525 63.7979V69.7998C24.752 70.4623 25.2888 70.9995 25.9512 70.9999H48.7548C49.4173 71.0004 49.9545 70.4636 49.9549 69.8012V63.7992C49.9554 63.1368 49.4186 62.5996 48.7562 62.5991H47.5547V61.3931L49.4569 59.6387C51.2772 58.2616 52.3493 56.1129 52.3552 53.8303V39.7715C53.7763 39.6008 55.0973 38.9527 56.1021 37.9334L62.4461 31.0444C63.9373 29.5639 64.4565 27.3641 63.7845 25.3731C63.5922 24.7944 64.6259 22.9003 65.8575 21.4477C66.0773 21.6658 66.3731 21.7903 66.6828 21.795H66.6945C67.0104 21.795 67.3137 21.6703 67.5383 21.448L72.3938 16.6475C72.865 16.1819 72.8694 15.4223 72.4036 14.9511ZM6.7507 20.0982L3.64735 16.9946L17.5518 3.09009L20.6553 6.19344L6.7507 20.0982ZM22.4586 41.7576L13.8951 32.9478C12.6904 31.7354 12.2049 29.9826 12.6142 28.3232L13.478 24.8682C13.5807 24.4594 13.4609 24.0267 13.1626 23.729L9.8383 20.4046L19.952 10.2909L21.5037 11.8427C21.9371 12.2758 22.6271 12.3131 23.1047 11.9294L24.0903 11.136C25.4521 10.7552 26.9136 11.1403 27.911 12.1427L34.5267 18.7584L34.5153 18.7669C33.9799 19.2588 33.5808 19.8811 33.3573 20.5729C32.6135 20.1699 31.7659 19.9996 30.9242 20.0842C28.7459 20.3683 27.1251 22.238 27.1527 24.4346V36.9855C24.7658 37.4783 22.9121 39.3627 22.4586 41.7576ZM47.5547 68.5997H27.1527V64.9993H47.5547V68.5997ZM49.9549 53.8303C49.941 55.3989 49.1878 56.8689 47.9227 57.7964L45.5424 59.9833C45.295 60.2106 45.1543 60.5312 45.1545 60.867V62.5993H29.5529V62.3496C29.5556 60.3027 28.4269 58.4218 26.6194 57.4613C25.4932 56.8864 24.7756 55.7379 24.7525 54.4739V42.8653C24.7571 41.3446 25.7183 39.9913 27.1527 39.486V46.9977H29.5529V24.4345C29.5162 23.4673 30.2074 22.625 31.1632 22.4726C31.6723 22.4201 32.18 22.5857 32.5603 22.9285C32.9397 23.2681 33.1555 23.754 33.1533 24.2633V42.1971H35.5535V21.8631C35.5528 20.8692 36.3579 20.063 37.3517 20.0623C37.4072 20.0623 37.4626 20.0649 37.5178 20.0698C38.4898 20.2318 39.1902 21.0904 39.1539 22.075V42.197H41.5541V25.4634C41.5534 24.4696 42.3585 23.6634 43.3523 23.6627C43.4078 23.6627 43.4632 23.6652 43.5184 23.6702C44.4903 23.8322 45.1908 24.6907 45.1545 25.6754V42.197H47.5547V32.285C48.9891 32.7903 49.9503 34.1436 49.9549 35.6643V53.8303ZM61.5083 26.1326C61.8895 27.2785 61.5812 28.5413 60.7149 29.3826L54.3709 36.2715C53.822 36.8263 53.1202 37.2045 52.355 37.3579V35.6644C52.3513 32.8141 50.3463 30.3584 47.5545 29.7846V25.6756C47.5967 23.4447 45.9422 21.5446 43.7268 21.2794C42.9743 21.2161 42.2184 21.3536 41.5363 21.6778C41.3949 19.6013 39.7934 17.9205 37.7262 17.679C37.6752 17.6747 37.6249 17.6843 37.5739 17.6819L42.3954 12.0583C43.608 10.8539 45.3606 10.3685 47.02 10.7773L50.475 11.6411C50.8838 11.7435 51.3163 11.6238 51.6142 11.3257L53.8412 9.09878L64.1817 19.7326C63.074 21.0176 60.7984 24.0039 61.5083 26.1326ZM66.711 18.8908L54.3463 6.17469L57.1802 3.12159L69.8482 15.7896L66.711 18.8908Z" fill="#525252"/>
</svg>
