<svg width="73" height="50" viewBox="0 0 73 50" fill="none" xmlns="http://www.w3.org/2000/svg">
<path fill-rule="evenodd" clip-rule="evenodd" d="M72.3857 14.3452L63.1254 0.458873C63.0324 0.318993 62.8993 0.203009 62.7394 0.122492C62.5795 0.0419754 62.3984 -0.000259149 62.2142 1.19638e-06H10.8493C10.665 -0.000259149 10.4839 0.0419754 10.324 0.122492C10.1641 0.203009 10.0311 0.318993 9.93804 0.458873L0.674798 14.3452C0.56077 14.5165 0.512223 14.7155 0.536288 14.9129C0.560354 15.1103 0.655763 15.2957 0.8085 15.4419L35.7513 48.9523C35.8503 49.0473 35.9706 49.1232 36.1048 49.1751C36.2389 49.227 36.3838 49.2538 36.5303 49.2538C36.6768 49.2538 36.8217 49.227 36.9558 49.1751C37.0899 49.1232 37.2103 49.0473 37.3092 48.9523L72.252 15.4419C72.4048 15.2957 72.5002 15.1103 72.5243 14.9129C72.5483 14.7155 72.4998 14.5165 72.3857 14.3452ZM61.0632 1.85722L51.3814 14.3222L38.0112 1.85722H61.0632ZM35.0494 1.85722L21.6791 14.3222L11.9974 1.85722H35.0494ZM11.3099 2.07196L20.9685 14.505H3.01749L11.3099 2.07196ZM3.34158 15.1249H21.3957L28.533 31.1367L29.1313 30.6631L22.1427 14.8692L36.0173 1.85722H37.0433L51.0631 14.8692L43.5661 31.6913H44.3031L51.6648 15.1249H69.719L38.2539 45.3044L42.586 35.5554H41.844L36.9357 46.5685L36.5303 46.952L36.1248 46.5685L31.2106 35.4274H30.4191L34.8067 45.2993L3.34158 15.1249ZM52.0921 14.5114L61.7506 2.07834L70.043 14.5114H52.0921Z" fill="#999999"/>
<path d="M45.8323 35.0823H28.1677V33.3834L35.6776 25.5454C37.7883 23.3574 39.2684 21.6843 40.1178 20.5259C40.9673 19.3676 41.5915 18.2607 41.9905 17.2054C42.3895 16.15 42.589 15.0432 42.589 13.8848C42.589 12.1988 42.0355 10.8281 40.9287 9.77274C39.8218 8.71737 38.3868 8.18968 36.6235 8.18968C34.2683 8.18968 32.0159 9.04556 29.8666 10.7573L28.8241 9.42524C31.1794 7.4432 33.792 6.45218 36.6621 6.45218C39.1204 6.45218 41.0509 7.10857 42.4538 8.42135C43.8696 9.73413 44.5774 11.5424 44.5774 13.8462C44.5774 15.7124 44.1012 17.5207 43.1488 19.2711C42.2093 21.0086 40.4846 23.1579 37.9749 25.7191L30.7353 33.1518V33.229H45.8323V35.0823Z" fill="#999999"/>
</svg>
