<svg width="73" height="53" viewBox="0 0 73 53" fill="none" xmlns="http://www.w3.org/2000/svg">
<path fill-rule="evenodd" clip-rule="evenodd" d="M72.3857 17.1517L63.1254 3.26551C63.0324 3.12563 62.8993 3.00965 62.7394 2.92913C62.5795 2.84862 62.3984 2.80638 62.2142 2.80664H10.8493C10.665 2.80638 10.4839 2.84862 10.324 2.92913C10.1641 3.00965 10.0311 3.12563 9.93804 3.26551L0.674798 17.1517C0.56077 17.3231 0.512223 17.522 0.536288 17.7194C0.560354 17.9168 0.655763 18.1022 0.8085 18.2484L35.7513 51.7586C35.8503 51.8536 35.9706 51.9295 36.1048 51.9814C36.2389 52.0333 36.3838 52.0601 36.5303 52.0601C36.6768 52.0601 36.8217 52.0333 36.9558 51.9814C37.0899 51.9295 37.2103 51.8536 37.3092 51.7586L72.252 18.2484C72.4048 18.1022 72.5002 17.9168 72.5243 17.7194C72.5483 17.522 72.4998 17.3231 72.3857 17.1517ZM61.0632 4.66385L51.3814 17.1287L38.0112 4.66385H61.0632ZM35.0494 4.66385L21.6791 17.1287L11.9974 4.66385H35.0494ZM11.3099 4.87858L20.9685 17.3115H3.01749L11.3099 4.87858ZM3.34158 17.9314H21.3957L28.1337 33.0297L29.0043 33.3693L22.1427 17.6758L36.0173 4.66385H37.0433L51.0631 17.6758L45.9375 29.161V30.5995L51.6648 17.9314H69.719L38.2539 48.1107L43.5386 36.1405L42.586 36.6938L36.9357 49.3748L36.5303 49.7582L36.1248 49.3748L31.2106 38.2337L30.29 37.913L34.8067 48.1056L3.34158 17.9314ZM52.0921 17.3179L61.7506 4.88497L70.043 17.3179H52.0921Z" fill="#999999"/>
<path d="M29.0043 33.3693L28.1337 33.0297L30.29 37.913L31.2106 38.2337L29.0043 33.3693Z" fill="#999999"/>
<path d="M42.586 36.6938L43.5386 36.1405L45.9375 30.5995V29.161L42.586 36.6938Z" fill="#999999"/>
<path d="M46.3037 31.4434H41.874V38H40.2217V31.4434H27.0029V30.2656L39.7471 12.1602H41.874V29.9316H46.3037V31.4434ZM40.2217 29.9316V22.584C40.2217 19.0449 40.3037 16.0742 40.4678 13.6719H40.3271C40.0928 14.1055 39.3721 15.207 38.165 16.9766L29.0947 29.9316H40.2217Z" fill="#999999"/>
</svg>
