<svg width="73" height="73" viewBox="0 0 73 73" fill="none" xmlns="http://www.w3.org/2000/svg">
<rect x="20.3623" y="0.500244" width="32.0104" height="40.0471" rx="1.5" stroke="#999999"/>
<rect x="23.4619" y="4.41565" width="25.8107" height="32.2162" rx="1.75" stroke="#999999" stroke-width="0.5"/>
<path d="M11.5631 45.089V72.0002M60.2667 45.089V72.0002M60.2667 72.0002H11.5631M60.2667 72.0002H71.6032M11.5631 72.0002H0.939453" stroke="#999999"/>
<path d="M15.1398 41.3002C15.1398 43.2137 13.6022 44.7579 11.7139 44.7579C9.82569 44.7579 8.28809 43.2137 8.28809 41.3002C8.28809 39.3868 9.82569 37.8425 11.7139 37.8425C13.6022 37.8425 15.1398 39.3868 15.1398 41.3002Z" stroke="#999999"/>
<path d="M63.6925 41.3002C63.6925 43.2137 62.1549 44.7579 60.2667 44.7579C58.3784 44.7579 56.8408 43.2137 56.8408 41.3002C56.8408 39.3868 58.3784 37.8425 60.2667 37.8425C62.1549 37.8425 63.6925 39.3868 63.6925 41.3002Z" stroke="#999999"/>
<path d="M0.271484 53.678C3.1668 52.2746 9.75194 47.9925 11.5858 44.8251C13.3085 47.8536 36.4791 69.3445 60.2008 44.9252C63.7395 48.3984 68.7634 52.6676 72.2715 53.678" stroke="#999999" stroke-width="0.5"/>
</svg>
