<svg width="100" height="83" viewBox="0 0 100 83" fill="none" xmlns="http://www.w3.org/2000/svg">
<path d="M81.7861 47.9595L73.5768 34.0207C73.4943 33.8803 73.3763 33.7639 73.2346 33.683C73.0928 33.6022 72.9323 33.5598 72.769 33.5601H27.2337C27.0704 33.5598 26.9098 33.6022 26.7681 33.683C26.6264 33.7639 26.5084 33.8803 26.4259 34.0207L18.214 47.9595C18.1129 48.1315 18.0699 48.3312 18.0912 48.5293C18.1126 48.7275 18.1971 48.9136 18.3325 49.0603L49.3095 82.6974C49.3972 82.7928 49.5039 82.8689 49.6228 82.921C49.7417 82.9731 49.8702 83 50 83C50.1299 83 50.2584 82.9731 50.3773 82.921C50.4962 82.8689 50.6029 82.7928 50.6906 82.6974L81.6676 49.0603C81.803 48.9136 81.8875 48.7275 81.9089 48.5293C81.9302 48.3312 81.8872 48.1315 81.7861 47.9595ZM71.7486 35.4243L63.1656 47.9364L51.3129 35.4243H71.7486ZM48.6872 35.4243L36.8345 47.9364L28.2515 35.4243H48.6872ZM27.6421 35.6399L36.2045 48.1199H20.2908L27.6421 35.6399ZM20.5781 48.7421H36.5832L48.4721 79.0305L20.5781 48.7421ZM50.3595 80.3046L50 80.6895L49.6406 80.3046L37.2454 48.4855L49.5453 35.4243H50.4548L62.8835 48.4855L50.3595 80.3046ZM51.528 79.0357L63.4169 48.7421H79.422L51.528 79.0357ZM63.7956 48.1263L72.358 35.6463L79.7093 48.1263H63.7956Z" fill="#422362"/>
<path d="M49.9998 12.8328C50.0825 12.8328 50.1618 12.8001 50.2203 12.7419C50.2787 12.6836 50.3116 12.6047 50.3116 12.5223V0.310492C50.3116 0.228145 50.2787 0.14917 50.2203 0.090941C50.1618 0.0327124 50.0825 0 49.9998 0C49.9171 0 49.8378 0.0327124 49.7793 0.090941C49.7209 0.14917 49.688 0.228145 49.688 0.310492V12.5223C49.688 12.5631 49.6961 12.6035 49.7117 12.6411C49.7274 12.6788 49.7504 12.713 49.7793 12.7419C49.8083 12.7707 49.8427 12.7936 49.8805 12.8092C49.9183 12.8248 49.9589 12.8328 49.9998 12.8328Z" fill="#422362"/>
<path d="M26.2547 20.3077C26.2784 20.3418 26.3087 20.3708 26.3437 20.3931C26.3788 20.4153 26.418 20.4304 26.4591 20.4373C26.5001 20.4442 26.5421 20.4429 26.5826 20.4334C26.6231 20.424 26.6613 20.4065 26.6949 20.3821C26.7285 20.3577 26.7569 20.3268 26.7784 20.2913C26.7998 20.2558 26.8139 20.2164 26.8199 20.1754C26.8258 20.1344 26.8234 20.0926 26.8129 20.0525C26.8023 20.0124 26.7838 19.9749 26.7585 19.942L19.5515 10.0627C19.503 9.99602 19.4298 9.95125 19.3482 9.93826C19.2665 9.92526 19.183 9.94511 19.116 9.99343C19.0491 10.0417 19.0041 10.1146 18.9911 10.1959C18.978 10.2772 18.9979 10.3604 19.0465 10.4271L26.2547 20.3077Z" fill="#422362"/>
<path d="M12.0829 39.7314L0.420833 35.958C0.381392 35.9434 0.339377 35.9368 0.297322 35.9388C0.255267 35.9407 0.214043 35.9511 0.176136 35.9693C0.138229 35.9876 0.104424 36.0133 0.0767598 36.0449C0.0490956 36.0765 0.0281452 36.1133 0.0151719 36.1532C0.00219869 36.1931 -0.00252856 36.2352 0.00127515 36.277C0.00507886 36.3187 0.0173347 36.3593 0.0373038 36.3962C0.0572729 36.4331 0.0845414 36.4656 0.117465 36.4917C0.150389 36.5179 0.188285 36.5371 0.22887 36.5482L11.891 40.3229C11.9697 40.3483 12.0554 40.3414 12.1291 40.3039C12.2028 40.2663 12.2585 40.2012 12.2839 40.1228C12.3094 40.0443 12.3025 39.959 12.2648 39.8856C12.2271 39.8123 12.1617 39.7568 12.0829 39.7314Z" fill="#422362"/>
<path d="M11.8906 64.3321L0.228491 68.1055C0.157131 68.1277 0.0961491 68.1747 0.0566602 68.2379C0.0171712 68.3011 0.00180393 68.3764 0.0133589 68.4499C0.0249138 68.5235 0.0626218 68.5904 0.119611 68.6386C0.176599 68.6868 0.249075 68.713 0.323829 68.7124C0.356645 68.7123 0.389246 68.7071 0.420455 68.697L12.0826 64.9223C12.1231 64.9112 12.161 64.892 12.194 64.8658C12.2269 64.8397 12.2541 64.8072 12.2741 64.7703C12.2941 64.7334 12.3063 64.6928 12.3101 64.6511C12.3139 64.6093 12.3092 64.5672 12.2962 64.5274C12.2833 64.4875 12.2623 64.4506 12.2347 64.419C12.207 64.3874 12.1732 64.3617 12.1353 64.3435C12.0974 64.3252 12.0562 64.3148 12.0141 64.3129C11.972 64.3109 11.93 64.3175 11.8906 64.3321Z" fill="#422362"/>
<path d="M99.7712 68.1056L88.1104 64.3322C88.0712 64.3183 88.0296 64.3124 87.9881 64.3148C87.9465 64.3173 87.9059 64.3279 87.8685 64.3462C87.8312 64.3645 87.7979 64.3901 87.7706 64.4214C87.7433 64.4527 87.7227 64.4891 87.7098 64.5285C87.6969 64.568 87.692 64.6095 87.6955 64.6508C87.699 64.6921 87.7107 64.7323 87.7301 64.769C87.7494 64.8057 87.7759 64.8382 87.8081 64.8646C87.8402 64.8909 87.8773 64.9106 87.9172 64.9224L99.5793 68.6971C99.6105 68.7072 99.6431 68.7123 99.6759 68.7124C99.7507 68.713 99.8231 68.6868 99.8801 68.6387C99.9371 68.5905 99.9748 68.5235 99.9864 68.45C99.9979 68.3764 99.9826 68.3012 99.9431 68.238C99.9036 68.1747 99.8426 68.1278 99.7712 68.1056Z" fill="#422362"/>
<path d="M88.0137 40.3371C88.0465 40.3373 88.079 40.3326 88.1103 40.323L99.7711 36.5534C99.8117 36.5423 99.8496 36.5231 99.8825 36.4969C99.9155 36.4708 99.9427 36.4383 99.9627 36.4014C99.9827 36.3645 99.9949 36.3239 99.9987 36.2822C100.003 36.2404 99.9978 36.1983 99.9848 36.1584C99.9719 36.1185 99.9509 36.0817 99.9232 36.0501C99.8956 36.0185 99.8618 35.9928 99.8239 35.9745C99.786 35.9563 99.7447 35.9459 99.7027 35.944C99.6606 35.942 99.6186 35.9486 99.5792 35.9632L87.9171 39.7366C87.8466 39.7596 87.7867 39.8068 87.748 39.8698C87.7093 39.9328 87.6945 40.0075 87.7061 40.0804C87.7178 40.1534 87.7551 40.2198 87.8115 40.2678C87.8679 40.3157 87.9396 40.3421 88.0137 40.3422V40.3371Z" fill="#422362"/>
<path d="M73.4925 20.4347C73.5426 20.4356 73.5923 20.4245 73.6371 20.4021C73.682 20.3798 73.7208 20.3469 73.7501 20.3064L80.9649 10.4271C80.9889 10.3941 81.0061 10.3567 81.0156 10.317C81.0252 10.2773 81.0267 10.2362 81.0203 10.1959C81.0138 10.1557 80.9994 10.117 80.978 10.0823C80.9566 10.0476 80.9285 10.0174 80.8953 9.99344C80.8621 9.96951 80.8246 9.95233 80.7847 9.94286C80.7449 9.93339 80.7036 9.93183 80.6632 9.93827C80.6227 9.9447 80.584 9.959 80.5491 9.98036C80.5142 10.0017 80.4839 10.0297 80.4598 10.0627L73.2528 19.942C73.2042 20.0086 73.184 20.0916 73.1968 20.1729C73.2096 20.2543 73.2543 20.3272 73.3211 20.3757C73.3709 20.4123 73.4306 20.4328 73.4925 20.4347Z" fill="#422362"/>
<path d="M50.5898 65.2791V47.3411C50.5898 46.7753 50.622 46.2402 50.622 46.2402H50.5589C50.5589 46.2402 50.3373 46.6495 49.389 47.5926L47.2259 49.748C47.1033 49.87 46.9376 49.9391 46.7643 49.9405C46.5911 49.942 46.4242 49.8756 46.2996 49.7557C46.2367 49.6951 46.1866 49.6227 46.1521 49.5426C46.1176 49.4625 46.0994 49.3764 46.0986 49.2893C46.0977 49.2022 46.1143 49.1158 46.1472 49.035C46.1802 48.9543 46.2289 48.8809 46.2906 48.8191L50.4223 44.6775C50.4757 44.6242 50.5392 44.5819 50.609 44.5531C50.6789 44.5242 50.7538 44.5094 50.8294 44.5094H51.949V65.8385C51.949 66.0171 51.878 66.1885 51.7515 66.3152C51.625 66.4419 51.4533 66.5136 51.2739 66.5146C51.094 66.5153 50.9213 66.4449 50.7935 66.3188C50.6657 66.1928 50.5934 66.0214 50.5924 65.8423L50.5898 65.2791Z" fill="#422362"/>
</svg>
