<svg width="70" height="70" viewBox="0 0 70 70" fill="none" xmlns="http://www.w3.org/2000/svg">
<mask id="path-1-inside-1" fill="white">
<path d="M66.4145 13.836L69.8556 20.7168C70.0675 21.1405 70.045 21.6439 69.7959 22.0469C69.5468 22.4501 69.1067 22.6954 68.6328 22.6954H65.8984C63.6368 22.6954 61.7969 24.5353 61.7969 26.7969V35C61.7969 46.1165 52.0298 55.5079 40.4687 55.5079H30.437L25.3849 67.4363C24.5399 69.5278 22.153 70.5436 20.0592 69.7069C20.0259 69.6937 19.9933 69.679 19.9611 69.6632L12.7215 66.0876C10.0451 64.9733 9.34068 61.5061 11.3669 59.4344L24.5168 44.5489C17.9171 44.2596 11.8927 40.748 8.39459 35.1519L0.207859 22.0528C-0.0555988 21.6314 -0.0695442 21.1003 0.171355 20.6655C0.412253 20.2307 0.870125 19.961 1.3671 19.961H11.9669C14.0742 19.961 16.2011 19.7894 18.2888 19.4509C19.3544 19.2786 20.425 19.0578 21.4868 18.794C20.4737 15.5358 19.9609 12.1591 19.9609 8.73501V1.36724C19.9609 0.764856 20.3553 0.233294 20.9318 0.058704C21.5085 -0.115749 22.1314 0.107649 22.4656 0.60886C26.1931 6.19997 31.3639 10.2734 36.6525 11.7845L43.5609 13.7587C45.3004 14.2549 46.8103 15.3407 47.8396 16.8044L51.7017 12.4585C53.3392 10.3065 55.9241 9.02349 58.6291 9.02349C61.9481 9.02349 64.9311 10.8676 66.4145 13.836Z"/>
</mask>
<path d="M69.8556 20.7168L68.9612 21.1641L68.9612 21.1641L69.8556 20.7168ZM66.4145 13.836L65.52 14.283L65.5201 14.2833L66.4145 13.836ZM51.7017 12.4585L52.4492 13.1228L52.4744 13.0944L52.4975 13.0641L51.7017 12.4585ZM47.8396 16.8044L47.0217 17.3797L47.7482 18.4128L48.5871 17.4687L47.8396 16.8044ZM43.5609 13.7587L43.2861 14.7203L43.2866 14.7204L43.5609 13.7587ZM36.6525 11.7845L36.9272 10.823L36.9272 10.823L36.6525 11.7845ZM22.4656 0.60886L21.6335 1.16356L21.6335 1.16357L22.4656 0.60886ZM20.9318 0.058704L20.6423 -0.898458L20.642 -0.898376L20.9318 0.058704ZM21.4868 18.794L21.728 19.7644L22.7563 19.5089L22.4417 18.497L21.4868 18.794ZM18.2888 19.4509L18.1292 18.4637L18.1287 18.4638L18.2888 19.4509ZM0.207859 22.0528L1.05586 21.5228L1.05576 21.5226L0.207859 22.0528ZM8.39459 35.1519L7.54658 35.6819L7.54663 35.682L8.39459 35.1519ZM24.5168 44.5489L25.2662 45.211L26.6526 43.6416L24.5605 43.5499L24.5168 44.5489ZM11.3669 59.4344L12.0818 60.1336L12.0995 60.1155L12.1163 60.0965L11.3669 59.4344ZM12.7215 66.0876L13.1643 65.191L13.1355 65.1767L13.1058 65.1644L12.7215 66.0876ZM19.9611 69.6632L19.5183 70.5598L19.5185 70.5599L19.9611 69.6632ZM20.0592 69.7069L20.4302 68.7783L20.4299 68.7782L20.0592 69.7069ZM25.3849 67.4363L24.4641 67.0463L24.4609 67.054L24.4577 67.0617L25.3849 67.4363ZM30.437 55.5079V54.5079H29.7745L29.5161 55.1179L30.437 55.5079ZM69.7959 22.0469L68.9452 21.5212L68.9451 21.5213L69.7959 22.0469ZM70.75 20.2695L67.3089 13.3887L65.5201 14.2833L68.9612 21.1641L70.75 20.2695ZM67.3091 13.389C65.6563 10.0816 62.3269 8.02349 58.6291 8.02349V10.0235C61.5693 10.0235 64.206 11.6535 65.52 14.283L67.3091 13.389ZM58.6291 8.02349C55.6114 8.02349 52.7322 9.45267 50.9058 11.853L52.4975 13.0641C53.9461 11.1602 56.2368 10.0235 58.6291 10.0235V8.02349ZM50.9542 11.7943L47.0921 16.1402L48.5871 17.4687L52.4492 13.1228L50.9542 11.7943ZM48.6576 16.2292C47.4982 14.5806 45.7975 13.3568 43.8352 12.7971L43.2866 14.7204C44.8032 15.153 46.1223 16.1009 47.0217 17.3797L48.6576 16.2292ZM43.8357 12.7972L36.9272 10.823L36.3777 12.746L43.2861 14.7203L43.8357 12.7972ZM36.9272 10.823C31.9144 9.39064 26.9238 5.49334 23.2976 0.0541501L21.6335 1.16357C25.4623 6.90661 30.8134 11.1561 36.3777 12.746L36.9272 10.823ZM23.2976 0.0541598C22.719 -0.8138 21.6405 -1.20042 20.6423 -0.898458L21.2214 1.01587C21.3766 0.968926 21.5439 1.0291 21.6335 1.16356L23.2976 0.0541598ZM20.642 -0.898376C19.6438 -0.596078 18.9609 0.324193 18.9609 1.36724H20.9609C20.9609 1.20552 21.0669 1.06267 21.2217 1.01578L20.642 -0.898376ZM18.9609 1.36724V8.73501H20.9609V1.36724H18.9609ZM18.9609 8.73501C18.9609 12.2596 19.4889 15.7364 20.5319 19.0909L22.4417 18.497C21.4586 15.3352 20.9609 12.0586 20.9609 8.73501H18.9609ZM21.2456 17.8235C20.2097 18.0809 19.1662 18.2961 18.1292 18.4637L18.4484 20.4381C19.5425 20.2612 20.6404 20.0347 21.728 19.7644L21.2456 17.8235ZM18.1287 18.4638C16.0938 18.7937 14.0204 18.961 11.9669 18.961V20.961C14.128 20.961 16.3084 20.7851 18.4489 20.438L18.1287 18.4638ZM11.9669 18.961H1.3671V20.961H11.9669V18.961ZM1.3671 18.961C0.506544 18.961 -0.286246 19.4281 -0.703346 20.1808L1.04606 21.1502C1.11075 21.0334 1.23371 20.961 1.3671 20.961V18.961ZM-0.703346 20.1808C-1.12036 20.9334 -1.09632 21.8532 -0.640047 22.5829L1.05576 21.5226C0.985127 21.4097 0.981273 21.2671 1.04606 21.1502L-0.703346 20.1808ZM-0.640147 22.5828L7.54658 35.6819L9.24259 34.622L1.05586 21.5228L-0.640147 22.5828ZM7.54663 35.682C11.2194 41.5575 17.5447 45.2442 24.473 45.5479L24.5605 43.5499C18.2894 43.275 12.5659 39.9384 9.24255 34.6219L7.54663 35.682ZM23.7673 43.8868L10.6174 58.7724L12.1163 60.0965L25.2662 45.211L23.7673 43.8868ZM10.6519 58.7352C8.1318 61.312 9.00723 65.6244 12.3371 67.0107L13.1058 65.1644C11.0829 64.3222 10.5496 61.7003 12.0818 60.1336L10.6519 58.7352ZM12.2786 66.9842L19.5183 70.5598L20.404 68.7666L13.1643 65.191L12.2786 66.9842ZM19.5185 70.5599C19.5731 70.5868 19.6298 70.6123 19.6885 70.6357L20.4299 68.7782C20.4221 68.7751 20.4134 68.7712 20.4038 68.7665L19.5185 70.5599ZM19.6881 70.6355C22.2925 71.6763 25.2603 70.414 26.3121 67.8109L24.4577 67.0617C23.8194 68.6416 22.0135 69.411 20.4302 68.7783L19.6881 70.6355ZM26.3057 67.8263L31.3578 55.8979L29.5161 55.1179L24.4641 67.0463L26.3057 67.8263ZM30.437 56.5079H40.4687V54.5079H30.437V56.5079ZM40.4687 56.5079C52.5448 56.5079 62.7969 46.7054 62.7969 35H60.7969C60.7969 45.5276 51.5148 54.5079 40.4687 54.5079V56.5079ZM62.7969 35V26.7969H60.7969V35H62.7969ZM62.7969 26.7969C62.7969 25.0876 64.1891 23.6954 65.8984 23.6954V21.6954C63.0845 21.6954 60.7969 23.983 60.7969 26.7969H62.7969ZM65.8984 23.6954H68.6328V21.6954H65.8984V23.6954ZM68.6328 23.6954C69.4531 23.6954 70.2152 23.2707 70.6466 22.5725L68.9451 21.5213C68.8783 21.6294 68.7602 21.6954 68.6328 21.6954V23.6954ZM70.6465 22.5726C71.0779 21.8747 71.1169 21.0031 70.75 20.2694L68.9612 21.1641C69.0181 21.2778 69.0121 21.413 68.9452 21.5212L70.6465 22.5726Z" fill="#422362" mask="url(#path-1-inside-1)"/>
<path d="M35.9263 19.196L36.0549 18.9816V18.9816L35.9263 19.196ZM20.3938 58.421L20.6174 58.5328L20.6174 58.5328L20.3938 58.421ZM18.726 22.1501L18.6861 21.9033L18.6859 21.9033L18.726 22.1501ZM27.0415 20.1048L27.0015 19.858L27.0015 19.858L27.0415 20.1048ZM34.5197 21.5407L34.6483 21.3263L34.6483 21.3263L34.5197 21.5407ZM60.4297 14.2422C59.537 14.2422 58.8125 14.9666 58.8125 15.8594H59.3125C59.3125 15.2428 59.8131 14.7422 60.4297 14.7422V14.2422ZM58.8125 15.8594C58.8125 16.7521 59.537 17.4766 60.4297 17.4766V16.9766C59.8131 16.9766 59.3125 16.476 59.3125 15.8594H58.8125ZM60.4297 17.4766C61.3225 17.4766 62.0469 16.7521 62.0469 15.8594H61.5469C61.5469 16.476 61.0464 16.9766 60.4297 16.9766V17.4766ZM62.0469 15.8594C62.0469 14.9666 61.3225 14.2422 60.4297 14.2422V14.7422C61.0464 14.7422 61.5469 15.2428 61.5469 15.8594H62.0469ZM42.4391 22.8121L36.0549 18.9816L35.7977 19.4104L42.1819 23.2408L42.4391 22.8121ZM36.0549 18.9816C33.2396 17.2925 29.8889 16.6206 26.5642 17.1587L26.6441 17.6523C29.8509 17.1333 33.0824 17.7813 35.7977 19.4104L36.0549 18.9816ZM58.8125 35C58.8125 44.4856 50.4204 52.5234 40.4688 52.5234V53.0234C50.675 53.0234 59.3125 44.7827 59.3125 35H58.8125ZM40.4688 52.5234H29.5313V53.0234H40.4688V52.5234ZM29.5313 52.5234C25.5413 52.5234 21.9534 54.7411 20.1702 58.3093L20.6174 58.5328C22.3159 55.1341 25.7307 53.0234 29.5313 53.0234V52.5234ZM20.1702 58.3092L19.8817 58.8862L20.3289 59.1098L20.6174 58.5328L20.1702 58.3092ZM28.1759 44.7993C33.2534 44.5737 38.0048 42.4854 41.6124 38.8777L41.2589 38.5242C37.7396 42.0434 33.1064 44.0797 28.1537 44.2998L28.1759 44.7993ZM28.6341 28.1857C23.9712 31.2947 17.2443 31.9896 11.9107 29.9087L11.729 30.3745C17.2108 32.5132 24.1095 31.8034 28.9114 28.6018L28.6341 28.1857ZM3.83398 22.9453H11.967V22.4453H3.83398V22.9453ZM11.967 22.9453C14.2338 22.9453 16.5214 22.7607 18.766 22.3969L18.6859 21.9033C16.4677 22.2629 14.2069 22.4453 11.967 22.4453V22.9453ZM18.7659 22.3969C21.0778 22.0231 22.7207 21.5813 24.0089 21.1969C25.3068 20.8096 26.2091 20.4929 27.0815 20.3515L27.0015 19.858C26.0867 20.0062 25.1297 20.3406 23.8659 20.7177C22.5924 21.0978 20.9712 21.5338 18.6861 21.9033L18.7659 22.3969ZM27.0814 20.3516C29.6203 19.9406 32.2132 20.4485 34.3911 21.7551L34.6483 21.3263C32.3697 19.9593 29.6574 19.4281 27.0015 19.858L27.0814 20.3516ZM34.3911 21.7551L45.1055 28.1835L45.3627 27.7547L34.6483 21.3263L34.3911 21.7551Z" fill="#422362"/>
</svg>
