<svg width="54" height="70" viewBox="0 0 54 70" fill="none" xmlns="http://www.w3.org/2000/svg">
<g clip-path="url(#clip0)">
<path d="M44.5001 9.58201C44.5332 10.0357 44.7971 12.1203 44.8799 12.5677C44.9247 12.805 44.9787 13.0323 45.0372 13.2632C45.0415 13.2627 45.0457 13.2627 45.05 13.2632C45.0566 13.2654 45.0631 13.2682 45.0692 13.2715C45.0761 13.2728 45.0828 13.2746 45.0893 13.277C45.2842 13.353 46.4148 13.7398 47.3241 14.0504C48.0971 14.3153 48.8316 14.57 49.096 14.6617C49.7173 14.8855 50.3254 15.1447 50.9173 15.4379C51.5265 15.7385 51.9482 16.3543 52.0397 17.0875C52.6965 22.2277 53.206 27.4531 53.5527 32.6181C53.7512 35.5699 53.9021 38.5757 53.9936 41.5495C53.9988 41.7124 53.9445 41.8716 53.8409 41.9973C53.7374 42.1229 53.5916 42.2065 53.431 42.2323C52.7346 42.3438 52.0319 42.4124 51.3271 42.4375C51.1283 42.4449 50.9292 42.4485 50.7297 42.4485C50.5035 42.4485 50.2775 42.4439 50.0519 42.4348C50.0519 42.6648 50.0574 42.8948 50.0519 43.123C50.0487 43.2749 49.9939 43.4212 49.8967 43.5378C49.7994 43.6544 49.6654 43.7344 49.5168 43.7645C49.536 47.2607 49.7034 56.2508 49.9934 69.3125C49.9952 69.4017 49.9792 69.4903 49.9465 69.5732C49.9137 69.6562 49.8647 69.7317 49.8025 69.7954C49.7402 69.8592 49.6659 69.9099 49.5838 69.9445C49.5018 69.9791 49.4137 69.997 49.3247 69.9971H44.0001L42.3039 44.9824C42.3039 44.976 42.3039 44.9696 42.3039 44.9632C42.3039 44.9375 42.2957 44.9137 42.2911 44.889C42.2865 44.8642 42.2829 44.8514 42.2774 44.8321C42.2699 44.809 42.261 44.7864 42.2508 44.7643C42.2439 44.7465 42.2359 44.7291 42.2271 44.7121C42.2156 44.6919 42.2031 44.6723 42.1896 44.6534C42.1788 44.6364 42.1672 44.6199 42.1548 44.604C42.1411 44.5878 42.1264 44.5725 42.1109 44.5581C42.0956 44.5419 42.0794 44.5266 42.0624 44.5123C42.0487 44.5011 42.0343 44.4907 42.0194 44.4812C41.9983 44.4654 41.9759 44.4513 41.9526 44.439L41.9151 44.4216C41.8877 44.4083 41.8593 44.3973 41.8301 44.3886C41.8191 44.3886 41.8072 44.3831 41.7953 44.3803C41.7652 44.3727 41.7347 44.3672 41.7038 44.3638H41.6901C41.6749 44.3629 41.6596 44.3629 41.6444 44.3638C41.6282 44.3629 41.612 44.3629 41.5959 44.3638H41.5812C41.5504 44.367 41.5199 44.3722 41.4898 44.3794C41.4749 44.3819 41.4603 44.3853 41.4459 44.3895C41.4209 44.3975 41.3965 44.407 41.3727 44.4179C41.3555 44.4246 41.3387 44.4323 41.3224 44.4408C41.3038 44.4515 41.2858 44.4631 41.2684 44.4757C41.2501 44.4876 41.2309 44.5004 41.2135 44.5141C41.1961 44.5279 41.187 44.5389 41.1742 44.5517C41.1562 44.5688 41.1391 44.5869 41.1229 44.6058C41.112 44.6195 41.1019 44.6342 41.0919 44.6489C41.0818 44.6635 41.0635 44.6901 41.0516 44.713C41.0431 44.7294 41.0354 44.7462 41.0287 44.7634C41.0183 44.7858 41.0091 44.8087 41.0013 44.8321C40.9958 44.8514 40.9921 44.8706 40.9876 44.8899C40.9821 44.914 40.9782 44.9385 40.9757 44.9632C40.9752 44.9696 40.9752 44.976 40.9757 44.9824L40.1579 69.9971M38.7694 9.58201C38.7369 10.0284 38.5065 12.1277 38.4244 12.5677C38.3805 12.7977 38.3265 13.0259 38.2698 13.2559C38.2547 13.2585 38.2398 13.2618 38.225 13.266L38.2058 13.2742L38.1857 13.2797C37.9917 13.3558 36.8611 13.7425 35.9518 14.0532C35.1779 14.318 34.4443 14.5691 34.179 14.6644C33.5583 14.8886 32.9505 15.1474 32.3587 15.4397C31.7494 15.7412 31.3295 16.3562 31.2362 17.0893C30.8923 19.7781 30.5959 22.5017 30.3306 25.2253M30.3306 25.2253C30.1632 24.7112 29.4708 22.9993 29.2741 22.4962C28.7477 21.3242 28.1391 20.1911 27.4528 19.1054C27.4283 19.0668 27.3998 19.0309 27.3677 18.9982C27.2172 18.7866 27.0334 18.6009 26.8235 18.4483C26.0238 17.8684 25.0805 17.5197 24.0966 17.4403C23.9877 17.433 23.8779 17.4284 23.7691 17.4247C23.6282 17.4201 23.4882 17.4165 23.3474 17.399C23.1861 17.3876 23.0304 17.3356 22.8946 17.2478C22.7452 17.1323 22.6291 16.9793 22.5579 16.8043C22.505 16.68 22.4669 16.5499 22.4445 16.4166M30.3306 25.2253C32.2599 31.1502 30.9968 35.0334 30.5001 38C36.0001 43.123 35.2136 50.2656 35.3316 55.2702C35.3344 57.4165 36.7001 61.5697 37.2563 63.5858C37.6616 65.0744 39.1618 68.8202 40.1579 69.9971M40.1579 69.9971H0.668687C0.530168 69.9975 0.394963 69.9547 0.2818 69.8746C0.168637 69.7946 0.0831187 69.6813 0.0370901 69.5504C-0.00893853 69.4195 -0.0131991 69.2775 0.0248991 69.1441C0.0629972 69.0107 0.141569 68.8924 0.249728 68.8057C1.81305 67.5484 2.994 65.6899 3.57396 63.5821C4.13105 61.5605 4.13654 59.3409 4.13654 57.1938C4.13745 56.5385 4.13836 55.8833 4.153 55.2317C4.27649 50.0228 5.39707 45.2629 7.38027 41.4744C7.9766 40.3206 8.70177 39.2384 9.54184 38.2486C8.85549 34.1674 9.10036 29.9835 10.2581 26.0107C10.4868 25.2271 11.2479 23.255 11.5452 22.4971C12.0722 21.3253 12.6811 20.1922 13.3674 19.1063C13.3921 19.0676 13.4206 19.0314 13.4524 18.9982C13.6046 18.7864 13.7899 18.6007 14.0013 18.4483C14.8009 17.8684 15.7442 17.5197 16.7282 17.4403C16.838 17.433 16.9468 17.4247 17.0557 17.4247C17.1965 17.4201 17.3365 17.4165 17.4765 17.399C17.6376 17.3878 17.7933 17.3361 17.9293 17.2487C18.079 17.133 18.1954 16.9797 18.2668 16.8043C18.3198 16.68 18.3579 16.5499 18.3802 16.4166M37.5179 6.13988C37.5179 3.49325 39.3657 1.34058 41.6343 1.34058C43.9029 1.34058 45.7507 3.49325 45.7507 6.13988C45.7507 8.78651 43.9029 10.9401 41.6343 10.9401C39.3657 10.9401 37.5179 8.78376 37.5179 6.13988Z" stroke="#422362"/>
<path d="M43.976 14.418L41.6333 21.7539L39.3098 14.4656M40.9728 24.0542V35.5617M34.7707 42.5998C34.7021 42.5577 34.6265 42.5282 34.5475 42.5127C34.5421 41.5963 34.5668 40.6753 34.6226 39.7635C34.7259 38.08 34.9372 36.3727 35.143 34.7158C35.2601 33.7664 35.3781 32.8179 35.4779 31.8657C35.819 28.5898 35.9437 25.2948 35.8511 22.0023M14.1786 20.8568V20.8669C14.8426 20.5823 15.5431 20.3926 16.2597 20.3033C17.298 20.1786 18.2127 20.3033 18.9756 20.6753C19.5385 20.9576 20.0294 21.3651 20.4109 21.8667C20.7929 21.3653 21.2841 20.9578 21.847 20.6753C22.61 20.3033 23.5247 20.1795 24.563 20.3033C25.2802 20.3925 25.9813 20.5822 26.6459 20.8669V20.8568M27.4426 26.7457C27.893 27.8973 28.2658 29.0779 28.5586 30.2794C29.0415 32.2858 29.2977 34.3402 29.3224 36.4039H29.3252M29.274 22.4963C29.4935 20.931 29.7076 19.3603 29.8905 17.795C30.0808 16.1968 30.2464 14.6343 30.1723 13.0993C30.0067 9.63518 28.5833 6.4332 26.2672 4.31443C22.4398 0.810035 18.3902 0.809119 14.5582 4.31443C12.243 6.4332 10.8196 9.63518 10.6541 13.0993C10.58 14.6343 10.7455 16.1968 10.9358 17.795C11.1215 19.3538 11.3328 20.9255 11.545 22.4972M13.3828 26.7466C12.1719 29.8245 11.5335 33.0985 11.4993 36.4066M12.2933 37.4852C12.3794 37.4678 12.4612 37.4334 12.5341 37.3842C12.6069 37.335 12.6693 37.2718 12.7178 37.1984C12.9818 37.0277 13.2569 36.8747 13.541 36.7402C14.6033 36.2511 15.7779 36.0592 16.9403 36.1848C17.1123 36.2037 17.2848 36.1547 17.4214 36.0483C17.558 35.9419 17.6479 35.7865 17.6721 35.6148C17.8664 34.2633 17.741 32.8849 17.3062 31.5908C16.9869 30.6451 16.9403 29.2851 14.775 26.6293C14.7606 26.5097 14.7145 26.3961 14.6415 26.3003C14.5674 26.1115 14.4924 25.9228 14.4311 25.7266C14.0993 24.6285 14.0183 23.4696 14.1942 22.3359M26.6267 22.3368C26.8027 23.4706 26.7214 24.6296 26.3888 25.7276C26.3284 25.9237 26.2525 26.1125 26.1784 26.3022C26.1057 26.3973 26.0599 26.5103 26.0458 26.6293C25.7122 27.3528 25.3375 28.0566 24.9234 28.7371C23.1487 30.2794 22.9549 34.2624 23.1487 35.6139C23.1738 35.7851 23.2639 35.9401 23.4003 36.0463C23.5367 36.1525 23.7087 36.2018 23.8806 36.1839C25.0439 36.0596 26.2191 36.2541 27.2807 36.7466C27.5649 36.8811 27.8399 37.0341 28.104 37.2048C28.1523 37.2783 28.2147 37.3415 28.2876 37.3907C28.3604 37.44 28.4423 37.4743 28.5284 37.4917M35.09 44.0294L39.3519 44.8414C39.3931 44.8494 39.4351 44.8534 39.4772 44.8533C39.6257 44.853 39.77 44.8033 39.8873 44.7119C40.0045 44.6204 40.0881 44.4926 40.1248 44.3483L41.6369 38.3742L43.1499 44.341C43.1865 44.4853 43.2701 44.6133 43.3873 44.7047C43.5046 44.7962 43.649 44.8459 43.7976 44.846C43.8396 44.846 43.8816 44.842 43.9229 44.834L48.1857 44.0221M47.4264 21.9977C47.3355 25.2902 47.4604 28.5851 47.8006 31.8612C47.9003 32.8133 48.0174 33.7646 48.1354 34.714C48.3403 36.3635 48.5525 38.0763 48.6559 39.7589C48.7117 40.6689 48.7364 41.5917 48.73 42.5082C48.6513 42.5236 48.576 42.5531 48.5077 42.5952M42.3093 35.5571V24.0542M20.4118 15.514C18.1404 15.514 16.2954 13.3604 16.2954 10.7138C16.2954 8.06718 18.1432 5.91359 20.4118 5.91359C22.6804 5.91359 24.5282 8.06718 24.5282 10.7138C24.5282 13.3604 22.6859 15.514 20.4145 15.514H20.4118Z" stroke="#422362" stroke-width="0.5"/>
</g>
<defs>
<clipPath id="clip0">
<rect width="54" height="70" fill="white"/>
</clipPath>
</defs>
</svg>
