<svg width="69" height="69" viewBox="0 0 69 69" fill="none" xmlns="http://www.w3.org/2000/svg">
<path d="M64.1747 8.52301H58.2868V3.82427C58.2656 2.82404 57.8606 1.87203 57.1584 1.17225C56.4562 0.472477 55.5127 0.080602 54.5302 0.080602C53.5477 0.080602 52.6042 0.472477 51.902 1.17225C51.1998 1.87203 50.7948 2.82404 50.7736 3.82427V8.52301H18.2264V3.82427C18.2264 2.81001 17.8307 1.83729 17.1264 1.1201C16.422 0.402913 15.4667 0 14.4707 0C13.4746 0 12.5193 0.402913 11.815 1.1201C11.1106 1.83729 10.7149 2.81001 10.7149 3.82427V8.52301H4.82704C3.54725 8.52442 2.32028 9.04271 1.41534 9.96418C0.510389 10.8856 0.00138362 12.135 3.15458e-07 13.4381V64.0778C-0.000462219 65.3821 0.507729 66.6333 1.41287 67.5563C2.31802 68.4793 3.54605 68.9986 4.82704 69H64.1747C65.4542 68.9981 66.6807 68.4796 67.5853 67.5582C68.4899 66.6368 68.9986 65.3877 69 64.0849V13.4381C68.9986 12.1353 68.4899 10.8862 67.5853 9.9648C66.6807 9.04339 65.4542 8.52489 64.1747 8.52301ZM1.76986 23.719H67.2301V24.8329H1.76986V23.719ZM52.5435 3.82427C52.5588 3.29811 52.7748 2.79872 53.1457 2.43205C53.5166 2.06538 54.0132 1.8603 54.5302 1.8603C55.0472 1.8603 55.5438 2.06538 55.9147 2.43205C56.2856 2.79872 56.5016 3.29811 56.5169 3.82427V13.8869C56.5016 14.4131 56.2856 14.9125 55.9147 15.2791C55.5438 15.6458 55.0472 15.8509 54.5302 15.8509C54.0132 15.8509 53.5166 15.6458 53.1457 15.2791C52.7748 14.9125 52.5588 14.4131 52.5435 13.8869V3.82427ZM12.4778 3.82427C12.4778 3.28797 12.6871 2.77364 13.0595 2.39442C13.4319 2.0152 13.937 1.80216 14.4637 1.80216C14.9904 1.80216 15.4955 2.0152 15.8679 2.39442C16.2403 2.77364 16.4496 3.28797 16.4496 3.82427V13.8869C16.4496 14.1525 16.3982 14.4154 16.2984 14.6607C16.1986 14.9061 16.0523 15.129 15.8679 15.3168C15.6835 15.5045 15.4646 15.6535 15.2237 15.7551C14.9827 15.8567 14.7245 15.909 14.4637 15.909C14.2029 15.909 13.9447 15.8567 13.7037 15.7551C13.4628 15.6535 13.2439 15.5045 13.0595 15.3168C12.8751 15.129 12.7288 14.9061 12.629 14.6607C12.5292 14.4154 12.4778 14.1525 12.4778 13.8869V3.82427ZM4.8131 10.3252H10.701V13.8869C10.701 14.3891 10.7982 14.8864 10.9869 15.3504C11.1756 15.8144 11.4523 16.236 11.801 16.5911C12.1498 16.9462 12.5638 17.2279 13.0195 17.4201C13.4751 17.6123 13.9635 17.7112 14.4567 17.7112C14.9499 17.7112 15.4383 17.6123 15.894 17.4201C16.3496 17.2279 16.7637 16.9462 17.1124 16.5911C17.4612 16.236 17.7378 15.8144 17.9266 15.3504C18.1153 14.8864 18.2124 14.3891 18.2124 13.8869V10.3252H50.7736V13.8869C50.7948 14.8871 51.1998 15.8392 51.902 16.5389C52.6042 17.2387 53.5477 17.6306 54.5302 17.6306C55.5127 17.6306 56.4562 17.2387 57.1584 16.5389C57.8606 15.8392 58.2656 14.8871 58.2868 13.8869V10.3252H64.1747C64.9851 10.3261 65.762 10.6544 66.3348 11.2381C66.9077 11.8217 67.2297 12.613 67.2301 13.4381V22.8179H1.76986V13.4381C1.77078 12.6128 2.09317 11.8216 2.6663 11.238C3.23944 10.6544 4.01651 10.3261 4.82704 10.3252H4.8131ZM64.1747 67.1907H4.82704C4.01651 67.1898 3.23944 66.8615 2.6663 66.2779C2.09317 65.6943 1.77078 64.9031 1.76986 64.0778V25.7198H67.2301V64.0778C67.2297 64.9029 66.9077 65.6942 66.3348 66.2778C65.762 66.8615 64.9851 67.1898 64.1747 67.1907Z" fill="#422362"/>
<path d="M33.0648 29.8455C32.5075 29.8458 31.9627 30.0144 31.4994 30.33C31.0361 30.6456 30.6752 31.0939 30.4621 31.6184C30.249 32.1428 30.1935 32.7198 30.3024 33.2764C30.4114 33.833 30.6799 34.3442 31.0742 34.7454C31.4684 35.1466 31.9707 35.4198 32.5173 35.5304C33.064 35.641 33.6307 35.584 34.1456 35.3668C34.6605 35.1495 35.1006 34.7816 35.4102 34.3097C35.7198 33.8378 35.8851 33.283 35.8851 32.7154C35.8842 31.9542 35.5867 31.2245 35.0579 30.6865C34.5292 30.1484 33.8124 29.8459 33.0648 29.8455ZM33.0648 34.6843C32.6824 34.6843 32.3086 34.5688 31.9906 34.3525C31.6726 34.1362 31.4248 33.8287 31.2784 33.4689C31.1321 33.1091 31.0938 32.7132 31.1684 32.3313C31.243 31.9494 31.4272 31.5986 31.6976 31.3232C31.968 31.0479 32.3125 30.8603 32.6876 30.7844C33.0627 30.7084 33.4515 30.7474 33.8048 30.8964C34.1581 31.0454 34.4601 31.2978 34.6726 31.6216C34.885 31.9454 34.9984 32.326 34.9984 32.7154C34.998 33.2375 34.7941 33.738 34.4316 34.1071C34.0691 34.4763 33.5775 34.6838 33.0648 34.6843Z" fill="#422362"/>
<path d="M44.9845 35.5854C45.542 35.5854 46.0869 35.4171 46.5504 35.1017C47.0139 34.7864 47.3752 34.3381 47.5885 33.8137C47.8019 33.2893 47.8577 32.7122 47.7489 32.1555C47.6402 31.5988 47.3717 31.0874 46.9775 30.6861C46.5834 30.2847 46.0812 30.0113 45.5344 29.9006C44.9877 29.7899 44.421 29.8467 43.9059 30.0639C43.3909 30.2811 42.9507 30.649 42.641 31.121C42.3313 31.5929 42.166 32.1478 42.166 32.7154C42.1669 33.4763 42.4642 34.2057 42.9926 34.7438C43.5209 35.2818 44.2373 35.5845 44.9845 35.5854ZM44.9845 30.7465C45.367 30.7465 45.7408 30.862 46.0588 31.0784C46.3768 31.2947 46.6246 31.6022 46.771 31.962C46.9173 32.3217 46.9556 32.7176 46.881 33.0995C46.8064 33.4815 46.6222 33.8323 46.3518 34.1076C46.0814 34.383 45.7369 34.5705 45.3618 34.6465C44.9867 34.7225 44.5979 34.6835 44.2446 34.5344C43.8913 34.3854 43.5893 34.1331 43.3768 33.8093C43.1643 33.4855 43.0509 33.1048 43.0509 32.7154C43.0514 32.1934 43.2553 31.6929 43.6178 31.3237C43.9803 30.9546 44.4719 30.747 44.9845 30.7465Z" fill="#422362"/>
<path d="M56.9055 29.8455C56.348 29.8455 55.8031 30.0138 55.3396 30.3291C54.8761 30.6445 54.5148 31.0927 54.3015 31.6171C54.0881 32.1416 54.0323 32.7186 54.1411 33.2753C54.2498 33.832 54.5183 34.3434 54.9124 34.7448C55.3066 35.1462 55.8088 35.4195 56.3556 35.5302C56.9023 35.641 57.469 35.5841 57.9841 35.3669C58.4991 35.1497 58.9393 34.7819 59.249 34.3099C59.5587 33.8379 59.724 33.2831 59.724 32.7154C59.7231 31.9546 59.4258 31.2251 58.8974 30.6871C58.3691 30.1491 57.6527 29.8464 56.9055 29.8455ZM56.9055 34.6843C56.523 34.6843 56.1492 34.5688 55.8312 34.3525C55.5132 34.1362 55.2654 33.8287 55.119 33.4689C54.9727 33.1091 54.9344 32.7132 55.009 32.3313C55.0836 31.9494 55.2678 31.5986 55.5382 31.3232C55.8086 31.0479 56.1531 30.8603 56.5282 30.7844C56.9033 30.7084 57.2921 30.7474 57.6454 30.8964C57.9987 31.0454 58.3007 31.2978 58.5132 31.6216C58.7257 31.9454 58.8391 32.326 58.8391 32.7154C58.8386 33.2375 58.6347 33.738 58.2722 34.1071C57.9097 34.4763 57.4181 34.6838 56.9055 34.6843Z" fill="#422362"/>
<path d="M9.2326 43.4912C8.67514 43.4912 8.13021 43.6595 7.6667 43.9749C7.2032 44.2903 6.84194 44.7385 6.62861 45.2629C6.41528 45.7873 6.35947 46.3644 6.46822 46.9211C6.57697 47.4778 6.84541 47.9892 7.23959 48.3906C7.63377 48.792 8.13599 49.0653 8.68273 49.1761C9.22947 49.2868 9.79618 49.23 10.3112 49.0127C10.8262 48.7955 11.2664 48.4277 11.5761 47.9557C11.8858 47.4837 12.0511 46.9288 12.0511 46.3612C12.0507 45.6002 11.7536 44.8705 11.2251 44.3323C10.6966 43.7942 9.97998 43.4917 9.2326 43.4912ZM9.2326 48.3301C8.85017 48.3301 8.47632 48.2146 8.15834 47.9983C7.84037 47.7819 7.59253 47.4744 7.44618 47.1147C7.29983 46.7549 7.26154 46.359 7.33615 45.9771C7.41076 45.5952 7.59491 45.2443 7.86533 44.969C8.13575 44.6936 8.48029 44.5061 8.85537 44.4301C9.23045 44.3542 9.61924 44.3931 9.97256 44.5422C10.3259 44.6912 10.6279 44.9436 10.8403 45.2673C11.0528 45.5911 11.1662 45.9718 11.1662 46.3612C11.1657 46.8832 10.9619 47.3838 10.5994 47.7529C10.2368 48.1221 9.74528 48.3296 9.2326 48.3301Z" fill="#422362"/>
<path d="M21.1437 43.4912C20.5863 43.4912 20.0413 43.6595 19.5778 43.9749C19.1143 44.2903 18.7531 44.7385 18.5397 45.2629C18.3264 45.7873 18.2706 46.3644 18.3794 46.9211C18.4881 47.4778 18.7565 47.9892 19.1507 48.3906C19.5449 48.792 20.0471 49.0653 20.5939 49.1761C21.1406 49.2868 21.7073 49.23 22.2223 49.0127C22.7373 48.7955 23.1775 48.4277 23.4872 47.9557C23.7969 47.4837 23.9622 46.9288 23.9622 46.3612C23.9618 45.6002 23.6647 44.8705 23.1362 44.3323C22.6077 43.7942 21.8911 43.4917 21.1437 43.4912ZM21.1437 48.3301C20.7613 48.3301 20.3875 48.2146 20.0695 47.9983C19.7515 47.7819 19.5037 47.4744 19.3573 47.1147C19.211 46.7549 19.1727 46.359 19.2473 45.9771C19.3219 45.5952 19.506 45.2443 19.7765 44.969C20.0469 44.6936 20.3914 44.5061 20.7665 44.4301C21.1416 44.3542 21.5304 44.3931 21.8837 44.5422C22.237 44.6912 22.539 44.9436 22.7515 45.2673C22.9639 45.5911 23.0773 45.9718 23.0773 46.3612C23.0769 46.8832 22.873 47.3838 22.5105 47.7529C22.148 48.1221 21.6564 48.3296 21.1437 48.3301Z" fill="#422362"/>
<path d="M33.0648 43.4912C32.5075 43.4916 31.9627 43.6602 31.4994 43.9758C31.0361 44.2913 30.6752 44.7397 30.4621 45.2641C30.249 45.7886 30.1935 46.3656 30.3024 46.9222C30.4114 47.4788 30.6799 47.99 31.0742 48.3912C31.4684 48.7924 31.9707 49.0656 32.5173 49.1762C33.064 49.2868 33.6307 49.2298 34.1456 49.0126C34.6605 48.7953 35.1006 48.4274 35.4102 47.9555C35.7198 47.4836 35.8851 46.9288 35.8851 46.3612C35.8846 45.5999 35.5873 44.8699 35.0584 44.3317C34.5296 43.7935 33.8125 43.4912 33.0648 43.4912ZM33.0648 48.3301C32.6824 48.3301 32.3086 48.2146 31.9906 47.9983C31.6726 47.7819 31.4248 47.4744 31.2784 47.1147C31.1321 46.7549 31.0938 46.359 31.1684 45.9771C31.243 45.5952 31.4272 45.2443 31.6976 44.969C31.968 44.6936 32.3125 44.5061 32.6876 44.4301C33.0627 44.3542 33.4515 44.3931 33.8048 44.5422C34.1581 44.6912 34.4601 44.9436 34.6726 45.2673C34.885 45.5911 34.9984 45.9718 34.9984 46.3612C34.998 46.8832 34.7941 47.3838 34.4316 47.7529C34.0691 48.1221 33.5775 48.3296 33.0648 48.3301Z" fill="#422362"/>
<path d="M56.9055 43.4912C56.348 43.4912 55.8031 43.6595 55.3396 43.9749C54.8761 44.2903 54.5148 44.7385 54.3015 45.2629C54.0881 45.7873 54.0323 46.3644 54.1411 46.9211C54.2498 47.4778 54.5183 47.9892 54.9124 48.3906C55.3066 48.792 55.8088 49.0653 56.3556 49.1761C56.9023 49.2868 57.469 49.23 57.9841 49.0127C58.4991 48.7955 58.9393 48.4277 59.249 47.9557C59.5587 47.4837 59.724 46.9288 59.724 46.3612C59.7235 45.6002 59.4264 44.8705 58.898 44.3323C58.3695 43.7942 57.6528 43.4917 56.9055 43.4912ZM56.9055 48.3301C56.523 48.3301 56.1492 48.2146 55.8312 47.9983C55.5132 47.7819 55.2654 47.4744 55.119 47.1147C54.9727 46.7549 54.9344 46.359 55.009 45.9771C55.0836 45.5952 55.2678 45.2443 55.5382 44.969C55.8086 44.6936 56.1531 44.5061 56.5282 44.4301C56.9033 44.3542 57.2921 44.3931 57.6454 44.5422C57.9987 44.6912 58.3007 44.9436 58.5132 45.2673C58.7257 45.5911 58.8391 45.9718 58.8391 46.3612C58.8386 46.8832 58.6347 47.3838 58.2722 47.7529C57.9097 48.1221 57.4181 48.3296 56.9055 48.3301Z" fill="#422362"/>
<path d="M9.2326 57.135C8.67514 57.135 8.13021 57.3033 7.6667 57.6187C7.2032 57.934 6.84194 58.3823 6.62861 58.9067C6.41528 59.4311 6.35947 60.0082 6.46822 60.5649C6.57697 61.1216 6.84541 61.633 7.23959 62.0343C7.63377 62.4357 8.13599 62.7091 8.68273 62.8198C9.22947 62.9305 9.79618 62.8737 10.3112 62.6565C10.8262 62.4393 11.2664 62.0714 11.5761 61.5994C11.8858 61.1275 12.0511 60.5726 12.0511 60.005C12.0502 59.2441 11.753 58.5147 11.2246 57.9766C10.6962 57.4386 9.97984 57.1359 9.2326 57.135ZM9.2326 61.9739C8.85017 61.9739 8.47632 61.8584 8.15834 61.642C7.84037 61.4257 7.59253 61.1182 7.44618 60.7584C7.29983 60.3987 7.26154 60.0028 7.33615 59.6209C7.41076 59.2389 7.59491 58.8881 7.86533 58.6128C8.13575 58.3374 8.48029 58.1499 8.85537 58.0739C9.23045 57.998 9.61924 58.0369 9.97256 58.186C10.3259 58.335 10.6279 58.5873 10.8403 58.9111C11.0528 59.2349 11.1662 59.6156 11.1662 60.005C11.1657 60.527 10.9619 61.0275 10.5994 61.3967C10.2368 61.7658 9.74528 61.9734 9.2326 61.9739Z" fill="#422362"/>
<path d="M21.1437 57.135C20.5863 57.135 20.0413 57.3033 19.5778 57.6187C19.1143 57.934 18.7531 58.3823 18.5397 58.9067C18.3264 59.4311 18.2706 60.0082 18.3794 60.5649C18.4881 61.1216 18.7565 61.633 19.1507 62.0343C19.5449 62.4357 20.0471 62.7091 20.5939 62.8198C21.1406 62.9305 21.7073 62.8737 22.2223 62.6565C22.7373 62.4393 23.1775 62.0714 23.4872 61.5994C23.7969 61.1275 23.9622 60.5726 23.9622 60.005C23.9613 59.2441 23.6641 58.5147 23.1357 57.9766C22.6073 57.4386 21.891 57.1359 21.1437 57.135ZM21.1437 61.9739C20.7613 61.9739 20.3875 61.8584 20.0695 61.642C19.7515 61.4257 19.5037 61.1182 19.3573 60.7584C19.211 60.3987 19.1727 60.0028 19.2473 59.6209C19.3219 59.2389 19.506 58.8881 19.7765 58.6128C20.0469 58.3374 20.3914 58.1499 20.7665 58.0739C21.1416 57.998 21.5304 58.0369 21.8837 58.186C22.237 58.335 22.539 58.5873 22.7515 58.9111C22.9639 59.2349 23.0773 59.6156 23.0773 60.005C23.0769 60.527 22.873 61.0275 22.5105 61.3967C22.148 61.7658 21.6564 61.9734 21.1437 61.9739Z" fill="#422362"/>
<path d="M33.0648 57.135C32.5075 57.1354 31.9627 57.304 31.4994 57.6195C31.0361 57.9351 30.6752 58.3835 30.4621 58.9079C30.249 59.4324 30.1935 60.0094 30.3024 60.566C30.4114 61.1226 30.6799 61.6338 31.0742 62.035C31.4684 62.4362 31.9707 62.7093 32.5173 62.8199C33.064 62.9305 33.6307 62.8736 34.1456 62.6563C34.6605 62.439 35.1006 62.0712 35.4102 61.5993C35.7198 61.1273 35.8851 60.5725 35.8851 60.005C35.8842 59.2438 35.5867 58.5141 35.0579 57.976C34.5292 57.4379 33.8124 57.1355 33.0648 57.135ZM33.0648 61.9739C32.6824 61.9739 32.3086 61.8584 31.9906 61.6421C31.6726 61.4257 31.4248 61.1182 31.2784 60.7584C31.1321 60.3987 31.0938 60.0028 31.1684 59.6209C31.243 59.2389 31.4272 58.8881 31.6976 58.6128C31.968 58.3374 32.3125 58.1499 32.6876 58.0739C33.0627 57.998 33.4515 58.0369 33.8048 58.186C34.1581 58.335 34.4601 58.5873 34.6726 58.9111C34.885 59.2349 34.9984 59.6156 34.9984 60.005C34.998 60.527 34.7941 61.0275 34.4316 61.3967C34.0691 61.7658 33.5775 61.9734 33.0648 61.9739Z" fill="#422362"/>
<path d="M44.9845 57.135C44.4271 57.135 43.8822 57.3033 43.4187 57.6187C42.9551 57.934 42.5939 58.3823 42.3806 58.9067C42.1672 59.4311 42.1114 60.0082 42.2202 60.5649C42.3289 61.1216 42.5974 61.633 42.9915 62.0343C43.3857 62.4357 43.8879 62.7091 44.4347 62.8198C44.9814 62.9305 45.5481 62.8737 46.0631 62.6565C46.5782 62.4393 47.0184 62.0714 47.3281 61.5994C47.6378 61.1275 47.8031 60.5726 47.8031 60.005C47.8021 59.2441 47.5049 58.5147 46.9765 57.9766C46.4481 57.4386 45.7318 57.1359 44.9845 57.135ZM44.9845 61.9739C44.6021 61.9739 44.2283 61.8584 43.9103 61.642C43.5923 61.4257 43.3445 61.1182 43.1981 60.7584C43.0518 60.3987 43.0135 60.0028 43.0881 59.6209C43.1627 59.2389 43.3469 58.8881 43.6173 58.6128C43.8877 58.3374 44.2322 58.1499 44.6073 58.0739C44.9824 57.998 45.3712 58.0369 45.7245 58.186C46.0778 58.335 46.3798 58.5873 46.5923 58.9111C46.8047 59.2349 46.9181 59.6156 46.9181 60.005C46.9177 60.527 46.7138 61.0275 46.3513 61.3967C45.9888 61.7658 45.4972 61.9734 44.9845 61.9739Z" fill="#422362"/>
<path d="M50.8281 40.5557C50.1123 39.9938 49.2373 39.6827 48.3336 39.6688C47.4461 39.6567 46.5749 39.9128 45.8304 40.4049C45.5256 40.6058 45.2424 40.8389 44.9855 41.1002C44.729 40.8392 44.4464 40.6062 44.1424 40.4049C43.3977 39.9078 42.5243 39.6484 41.6339 39.6599C40.7307 39.6736 39.8562 39.9847 39.1412 40.5468C38.667 40.9395 38.2768 41.4269 37.9949 41.9791C37.713 42.5313 37.5452 43.1365 37.502 43.7573C37.4247 44.9365 37.7011 46.1118 38.2946 47.1275C38.9478 48.2893 39.8989 49.1957 40.7333 49.9957C41.9434 51.1498 43.1588 52.2998 44.3793 53.4457C44.5426 53.5996 44.7569 53.6852 44.9794 53.6852C45.2019 53.6852 45.4163 53.5996 45.5795 53.4457C46.7989 52.3022 48.0142 51.1522 49.2255 49.9957C50.0634 49.1957 51.0128 48.2911 51.6643 47.1275C52.2576 46.1118 52.5335 44.9364 52.4551 43.7573C52.4126 43.1389 52.2463 42.5359 51.9665 41.9853C51.6867 41.4348 51.2993 40.9483 50.8281 40.5557ZM50.701 43.9152C50.7477 44.7318 50.5523 45.5439 50.14 46.2459C49.6175 47.1736 48.8057 47.947 48.0218 48.6955C47.0126 49.6569 46.0005 50.6153 44.9855 51.5708C43.9717 50.6165 42.9602 49.6581 41.951 48.6955C41.1671 47.947 40.3553 47.1718 39.8327 46.2459C39.4211 45.5435 39.2252 44.7319 39.2701 43.9152C39.2938 43.5404 39.3916 43.1744 39.5578 42.8391C39.7239 42.5038 39.9549 42.2062 40.2369 41.964C40.6487 41.6406 41.1522 41.4614 41.6723 41.4532H41.7193C42.2384 41.4573 42.7455 41.6124 43.1808 41.9002C43.5901 42.1877 43.9517 42.5398 44.2521 42.9432L44.2922 42.9964C44.3781 43.0992 44.4848 43.1818 44.6052 43.2385C44.7255 43.2951 44.8565 43.3245 44.989 43.3245C45.1216 43.3245 45.2525 43.2951 45.3728 43.2385C45.4932 43.1818 45.5999 43.0992 45.6858 42.9964L45.752 42.9095C46.0465 42.5195 46.3992 42.179 46.7972 41.9002C47.2447 41.6006 47.7703 41.4449 48.3057 41.4532C48.8259 41.4607 49.3296 41.64 49.7411 41.964C50.0235 42.2058 50.2547 42.5034 50.4209 42.8387C50.5871 43.1741 50.6847 43.5403 50.7079 43.9152H50.701Z" fill="#422362"/>
</svg>
