<svg width="73" height="51" viewBox="0 0 73 51" fill="none" xmlns="http://www.w3.org/2000/svg">
<path d="M72.3857 15.1635L63.1254 1.27723C63.0324 1.13735 62.8993 1.02137 62.7394 0.940851C62.5795 0.860335 62.3984 0.8181 62.2142 0.818361H10.8493C10.665 0.8181 10.4839 0.860335 10.324 0.940851C10.1641 1.02137 10.0311 1.13735 9.93804 1.27723L0.674798 15.1635C0.56077 15.3348 0.512223 15.5338 0.536288 15.7312C0.560354 15.9286 0.655763 16.114 0.8085 16.2602L35.7513 49.7706C35.8503 49.8656 35.9707 49.9414 36.1048 49.9933C36.2389 50.0452 36.3838 50.072 36.5303 50.072C36.6768 50.072 36.8217 50.0452 36.9558 49.9933C37.0899 49.9414 37.2103 49.8656 37.3092 49.7706L72.252 16.2602C72.4048 16.114 72.5002 15.9286 72.5243 15.7312C72.5483 15.5338 72.4998 15.3348 72.3857 15.1635ZM61.0632 2.67557L51.3814 15.1405L38.0112 2.67557H61.0632ZM35.0494 2.67557L21.6791 15.1405L11.9974 2.67557H35.0494ZM11.3099 2.89031L20.9685 15.3233H3.01749L11.3099 2.89031ZM3.34158 15.9432H21.3957L34.8067 46.1175L3.34158 15.9432ZM36.9357 47.3867L36.5303 47.7702L36.1248 47.3867L22.1427 15.6876L36.0173 2.67557H37.0433L51.0631 15.6876L36.9357 47.3867ZM38.2539 46.1226L51.6648 15.9432H69.719L38.2539 46.1226ZM52.0921 15.3297L61.7506 2.8967L70.043 15.3297H52.0921Z" fill="#999999"/>
<path d="M37.1947 32.4178V14.5473C37.1947 13.9837 37.231 13.4507 37.231 13.4507H37.1598C37.1598 13.4507 36.9098 13.8584 35.8402 14.7979L33.4001 16.9452C33.2619 17.0667 33.0749 17.1356 32.8795 17.137C32.684 17.1385 32.4958 17.0723 32.3552 16.9529C32.2843 16.8925 32.2278 16.8203 32.1889 16.7406C32.1499 16.6608 32.1294 16.575 32.1285 16.4882C32.1275 16.4014 32.1462 16.3153 32.1833 16.2349C32.2205 16.1545 32.2755 16.0814 32.345 16.0198L37.0057 11.8938C37.066 11.8407 37.1376 11.7986 37.2164 11.7698C37.2952 11.7411 37.3797 11.7263 37.465 11.7264H38.7279V32.9751C38.7279 33.1531 38.6478 33.3238 38.5051 33.45C38.3624 33.5762 38.1687 33.6477 37.9664 33.6487C37.7635 33.6494 37.5686 33.5792 37.4245 33.4536C37.2803 33.3281 37.1987 33.1573 37.1976 32.9789L37.1947 32.4178Z" fill="#999999"/>
</svg>
