<svg width="26" height="15" viewBox="0 0 26 15" fill="none" xmlns="http://www.w3.org/2000/svg">
<path fill-rule="evenodd" clip-rule="evenodd" d="M14.1508 14.2207C14.1508 14.2207 14.5743 14.1745 14.7912 13.9458C14.9898 13.7362 14.9829 13.3408 14.9829 13.3408C14.9829 13.3408 14.9565 11.4942 15.8299 11.2216C16.6908 10.9534 17.796 13.0073 18.9691 13.7971C19.8551 14.3942 20.5277 14.2635 20.5277 14.2635L23.6622 14.2207C23.6622 14.2207 25.3012 14.1215 24.5242 12.8563C24.4599 12.7527 24.0708 11.9201 22.1942 10.2099C20.2281 8.41965 20.4921 8.7092 22.8588 5.61208C24.3004 3.7261 24.8766 2.57468 24.6964 2.08234C24.5253 1.61141 23.4648 1.73646 23.4648 1.73646L19.9366 1.75787C19.9366 1.75787 19.6749 1.72295 19.481 1.83674C19.2916 1.94827 19.1688 2.20852 19.1688 2.20852C19.1688 2.20852 18.611 3.66751 17.8661 4.90906C16.2948 7.52736 15.667 7.66593 15.4099 7.5037C14.8119 7.12402 14.9611 5.98049 14.9611 5.16819C14.9611 2.62988 15.3536 1.57198 14.1978 1.2982C13.8145 1.20695 13.5321 1.14724 12.5508 1.1371C11.2917 1.1247 10.2266 1.1416 9.62288 1.43115C9.22117 1.6238 8.91127 2.05418 9.10065 2.07896C9.33365 2.10938 9.86161 2.21866 10.1417 2.59271C10.5032 3.07603 10.4906 4.15985 10.4906 4.15985C10.4906 4.15985 10.6983 7.14768 10.0051 7.51834C9.52991 7.77296 8.87799 7.25359 7.47658 4.87752C6.75923 3.66075 6.21749 2.31555 6.21749 2.31555C6.21749 2.31555 6.11304 2.06432 5.92596 1.92912C5.69985 1.76576 5.38422 1.71506 5.38422 1.71506L2.03162 1.73646C2.03162 1.73646 1.52776 1.74998 1.34297 1.96517C1.17884 2.15557 1.33035 2.55102 1.33035 2.55102C1.33035 2.55102 3.95526 8.57963 6.92795 11.6182C9.65387 14.4032 12.7482 14.2207 12.7482 14.2207H14.1508Z" stroke="#422362"/>
</svg>
