<svg width="74" height="73" viewBox="0 0 74 73" fill="none" xmlns="http://www.w3.org/2000/svg">
<path d="M6.28184 51.3991H6.53184V51.1491H6.28184V51.3991ZM1.12158 51.3991H0.871582V51.6491H1.12158V51.3991ZM1.12158 35.7574L0.872119 35.741L0.871582 35.7492V35.7574H1.12158ZM67.9613 51.3991V51.1491H67.7113V51.3991H67.9613ZM73.1216 51.3991V51.6491H73.3716V51.3991H73.1216ZM73.1216 35.7574H73.3716V35.7492L73.371 35.741L73.1216 35.7574ZM55.1206 51.5185H55.3706V51.2685H55.1206V51.5185ZM6.53184 72.5332V51.3991H6.03184V72.5332H6.53184ZM6.28184 51.1491H1.12158V51.6491H6.28184V51.1491ZM1.37158 51.3991V35.7574H0.871582V51.3991H1.37158ZM1.37104 35.7738C1.42893 34.8924 1.74884 33.5659 2.51224 32.4673C3.26836 31.3791 4.45663 30.515 6.28184 30.515V30.015C4.2674 30.015 2.93567 30.9816 2.10163 32.182C1.27487 33.3718 0.934473 34.7916 0.872119 35.741L1.37104 35.7738ZM6.28184 30.515H18.5214V30.015H6.28184V30.515ZM68.2113 72.5332V51.3991H67.7113V72.5332H68.2113ZM67.9613 51.6491H73.1216V51.1491H67.9613V51.6491ZM73.3716 51.3991V35.7574H72.8716V51.3991H73.3716ZM73.371 35.741C73.3087 34.7916 72.9683 33.3718 72.1415 32.182C71.3075 30.9816 69.9758 30.015 67.9613 30.015V30.515C69.7865 30.515 70.9748 31.3791 71.7309 32.4673C72.4943 33.5659 72.8142 34.8924 72.8721 35.7738L73.371 35.741ZM67.9613 30.015H55.7217V30.515H67.9613V30.015ZM13.1098 72.6525L13.1101 54.8617L12.6101 54.8617L12.6098 72.6525L13.1098 72.6525ZM37.6954 72.6525L37.6957 54.8617L37.1957 54.8617L37.1954 72.6525L37.6954 72.6525ZM19.3711 72.6527V51.5185H18.8711V72.6527H19.3711ZM62.3633 72.6525L62.363 54.8617L61.863 54.8617L61.8633 72.6525L62.3633 72.6525ZM55.3706 72.6527V51.5185H54.8706V72.6527H55.3706ZM55.1206 51.2685H50.3207V51.7685H55.1206V51.2685Z" fill="#999999"/>
<path d="M22.6021 46.2648H22.1021V46.7648H22.6021V46.2648ZM22.6021 27.0411L22.1032 27.0065L22.1021 27.0238V27.0411H22.6021ZM32.3221 20.1158L32.6791 19.7657L32.5321 19.6158H32.3221V20.1158ZM37.1221 25.0112L36.7651 25.3612L37.1221 25.7254L37.4791 25.3613L37.1221 25.0112ZM51.6423 46.2648V46.7648H52.1423V46.2648H51.6423ZM51.6423 27.0411H52.1423V27.0238L52.1411 27.0065L51.6423 27.0411ZM41.9222 20.1158V19.6158H41.7123L41.5652 19.7657L41.9222 20.1158ZM29.3221 45.7648H29.2016V46.7648H29.3221V45.7648ZM29.2016 45.7648H22.6021V46.7648H29.2016V45.7648ZM23.1021 46.2648V27.0411H22.1021V46.2648H23.1021ZM23.1009 27.0757C23.176 25.9921 23.5859 24.3557 24.5562 23.0044C25.5115 21.6741 27.0085 20.6158 29.3221 20.6158V19.6158C26.6437 19.6158 24.8607 20.8659 23.7439 22.4211C22.6422 23.9554 22.1881 25.7816 22.1032 27.0065L23.1009 27.0757ZM29.3221 20.6158H32.3221V19.6158H29.3221V20.6158ZM31.9651 20.4658L36.7651 25.3612L37.4791 24.6611L32.6791 19.7657L31.9651 20.4658ZM44.9223 46.7648H45.0413V45.7648H44.9223V46.7648ZM45.0413 46.7648H51.6423V45.7648H45.0413V46.7648ZM52.1423 46.2648V27.0411H51.1423V46.2648H52.1423ZM52.1411 27.0065C52.0562 25.7816 51.6021 23.9554 50.5004 22.4211C49.3837 20.8659 47.6007 19.6158 44.9223 19.6158V20.6158C47.2359 20.6158 48.7329 21.6741 49.6882 23.0044C50.6585 24.3557 51.0684 25.9921 51.1435 27.0757L52.1411 27.0065ZM44.9223 19.6158H41.9222V20.6158H44.9223V19.6158ZM41.5652 19.7657L36.7651 24.6611L37.4791 25.3613L42.2793 20.4658L41.5652 19.7657ZM28.7016 42.9215V46.2648H29.7016V42.9215H28.7016ZM28.7016 46.2648V72.6526H29.7016V46.2648H28.7016ZM44.5413 42.9215V46.2648H45.5413V42.9215H44.5413ZM44.5413 46.2648V72.6526H45.5413V46.2648H44.5413Z" fill="#999999"/>
<path d="M18.8695 18.8022C18.8695 22.2901 16.0275 25.1198 12.519 25.1198C9.01051 25.1198 6.16846 22.2901 6.16846 18.8022C6.16846 15.3142 9.01051 12.4846 12.519 12.4846C16.0275 12.4846 18.8695 15.3142 18.8695 18.8022Z" fill="#D9D9D9" stroke="#999999" stroke-width="0.5"/>
<path d="M43.2201 7.2202C43.2201 10.5689 40.4912 13.2878 37.1196 13.2878C33.748 13.2878 31.019 10.5689 31.019 7.2202C31.019 3.87151 33.748 1.15259 37.1196 1.15259C40.4912 1.15259 43.2201 3.87151 43.2201 7.2202Z" fill="#D9D9D9" stroke="#999999"/>
<path d="M68.0707 18.8022C68.0707 22.2901 65.2287 25.1198 61.7202 25.1198C58.2117 25.1198 55.3696 22.2901 55.3696 18.8022C55.3696 15.3142 58.2117 12.4846 61.7202 12.4846C65.2287 12.4846 68.0707 15.3142 68.0707 18.8022Z" fill="#D9D9D9" stroke="#999999" stroke-width="0.5"/>
<rect x="11.4946" y="34.4374" width="2.0488" height="2.03858" fill="#D9D9D9"/>
<rect x="36.0952" y="29.4252" width="2.0488" height="2.03858" fill="#D9D9D9"/>
<rect x="36.0952" y="34.7997" width="2.0488" height="2.03858" fill="#D9D9D9"/>
<rect x="60.6958" y="34.4374" width="2.0488" height="2.03858" fill="#D9D9D9"/>
</svg>
