<svg width="72" height="77" viewBox="0 0 72 77" fill="none" xmlns="http://www.w3.org/2000/svg">
<path d="M8.7035 53.6854C8.7035 53.6854 21.3378 67.0684 21.3482 67.0795C22.4035 68.1973 24.1629 68.1961 25.2171 67.0795C25.2171 67.0795 33.8996 57.883 33.9073 57.8743C34.9619 56.7576 34.9603 54.8916 33.9073 53.7761C33.9073 53.7761 21.2724 40.3925 21.2625 40.382C20.2073 39.2643 18.4484 39.2648 17.3937 40.382C17.3937 40.382 8.71174 49.5791 8.7035 49.5872C7.64936 50.7039 7.65046 52.5699 8.7035 53.6854ZM10.1949 51.167C10.1949 51.167 18.8763 41.9717 18.8851 41.9618C19.1279 41.7046 19.5289 41.7052 19.7711 41.9618L32.4159 55.3559C32.6603 55.6149 32.6603 56.0355 32.4159 56.2945C32.4159 56.2945 23.7421 65.4822 23.7257 65.4997C23.4829 65.7569 23.0824 65.7569 22.8396 65.4997L10.1949 52.1056C9.95045 51.8467 9.95045 51.426 10.1949 51.167Z" fill="#999999"/>
<path d="M16.2558 49.9266C16.5255 49.9272 16.7963 49.8219 17.0012 49.6048L17.8785 48.676C18.2905 48.2396 18.2905 47.5325 17.8785 47.096C17.4665 46.6596 16.7985 46.6596 16.3871 47.096L15.5104 48.0248C15.0984 48.4613 15.0984 49.1689 15.5104 49.6048C15.7098 49.8166 15.9822 49.926 16.2558 49.9266Z" fill="#999999"/>
<path d="M25.9462 60.1915C26.216 60.1921 26.4873 60.0868 26.6922 59.8697L27.5689 58.941C27.9809 58.5046 27.9809 57.797 27.5689 57.3612C27.1569 56.9248 26.4895 56.9248 26.0775 57.3612L25.2008 58.2899C24.7888 58.7263 24.7888 59.4333 25.2008 59.8697C25.4002 60.081 25.6727 60.1909 25.9462 60.1915Z" fill="#999999"/>
<path d="M22.217 56.2714C22.8647 56.2726 23.4579 55.8228 23.4107 55.0744C23.3711 54.4588 22.8685 53.9932 22.2873 54.0345C21.9622 54.0584 21.6298 53.9188 21.3793 53.6534C21.1283 53.3875 20.997 53.0366 21.019 52.6909C21.058 52.0753 20.6185 51.5428 20.0373 51.5015C19.4545 51.459 18.9535 51.9251 18.9145 52.5408C18.8519 53.53 19.2062 54.5111 19.8874 55.2333C20.5004 55.8821 21.3508 56.2702 22.217 56.2714Z" fill="#999999"/>
<path d="M70.3401 5.56161C70.3401 5.56161 66.7344 1.74215 66.7311 1.73866C64.5415 -0.580716 60.8908 -0.578388 58.7028 1.73866L56.4374 4.13891C54.082 6.63343 52.4406 9.75463 51.6721 13.1819C48.1911 16.7384 43.0484 18.8512 37.6091 21.0844C34.4038 22.4 31.1991 23.7279 28.1169 25.3461C23.4543 27.7917 19.8244 30.4765 16.6922 33.7938L10.1081 40.7682C9.69664 41.2047 9.69664 41.9122 10.1081 42.3481C10.5201 42.7845 11.188 42.7845 11.5995 42.3481L18.1836 35.3736C20.9076 32.4887 24.0442 30.1012 27.9872 27.9221L30.7267 36.2505C30.725 36.2546 30.7234 36.2593 30.7217 36.2633C30.4586 36.872 30.2504 37.5103 30.1197 38.1655C29.6934 40.3027 30.2098 42.703 32.1033 43.8563C32.1049 43.8575 32.1066 43.8586 32.1082 43.8598C33.7309 44.842 35.754 44.5749 37.4157 43.8569C37.4212 43.8545 37.4261 43.8522 37.4316 43.8499C37.5464 43.7998 37.6547 43.7504 37.7579 43.6998C39.006 44.16 42.8463 45.5775 45.622 46.6022C43.5648 50.7789 41.3109 54.1014 38.5869 56.9864L26.4722 69.8198C25.1951 71.1726 23.7328 72.3021 22.1266 73.1772C19.3547 74.6878 15.9913 74.1129 13.7566 71.7458L4.25016 61.6764C2.01609 59.3093 1.47281 55.7458 2.89884 52.8097C3.72501 51.1083 4.79124 49.5599 6.06895 48.2064L8.61668 45.5077C9.02867 45.0713 9.02867 44.3643 8.61668 43.9279C8.20469 43.4914 7.53727 43.4914 7.12528 43.9279L4.57755 46.6266C3.14493 48.1442 1.94962 49.8805 1.02347 51.7873C-0.823878 55.5911 -0.126246 60.1995 2.75931 63.2562C2.75931 63.2562 12.263 73.3233 12.2652 73.3256C15.092 76.3205 19.5261 77.1072 23.0917 75.1643C24.8924 74.1833 26.5315 72.9165 27.9636 71.3996L40.0788 58.5668C43.211 55.2489 45.745 51.4033 48.0538 46.4643C49.3002 43.7998 50.3164 41.1657 51.1459 38.9388C52.2291 36.0317 53.2443 33.0921 54.4363 30.2316C54.6714 29.6671 54.4302 29.0079 53.8974 28.7588C53.3646 28.5098 52.7416 28.7658 52.5065 29.3297C51.6732 31.3313 50.9135 33.4081 50.1088 35.607C49.9253 36.1086 49.7402 36.6136 49.5534 37.121L43.9427 35.0495C44.0383 33.6827 43.7389 32.4218 43.016 31.4425C42.0536 30.1233 40.4243 29.5898 38.8972 29.712L36.9378 23.7576C37.4185 23.5592 37.8964 23.3625 38.3715 23.1675C43.7565 20.957 48.8624 18.8611 52.606 15.3139L57.5245 20.5241C56.405 21.849 55.3773 23.4079 54.3995 25.2588C54.1149 25.7976 54.2968 26.4779 54.8049 26.7793C55.313 27.0801 55.9557 26.8881 56.2402 26.3498C57.2697 24.4006 58.3496 22.8155 59.535 21.5138C62.7716 20.6998 65.7187 18.9611 68.0742 16.4655L70.3401 14.0652C72.5533 11.7214 72.5533 7.90658 70.3401 5.56161ZM29.8901 26.9172C31.6583 26.024 33.3997 25.2495 34.9745 24.5792L36.8246 30.2025C35.743 30.6238 34.6796 31.2923 33.7117 32.1582C33.1547 32.6568 32.6443 33.2079 32.1807 33.8043C32.1747 33.8119 32.1686 33.8189 32.1631 33.8264L29.8901 26.9172ZM43.4769 37.2438L48.7778 39.2007C48.145 40.8689 47.4138 42.7135 46.5706 44.5865L40.0486 42.1793C40.6083 41.6958 41.1269 41.1546 41.5955 40.5733C42.4502 39.5131 43.0825 38.3744 43.4769 37.2438ZM38.3929 32.0424C39.3685 31.8207 40.6611 31.8934 41.3323 32.7883C41.3378 32.7959 41.3428 32.8035 41.3483 32.811C42.0668 33.7997 41.8943 35.2596 41.5273 36.3593C41.0582 37.764 40.2046 39.0156 39.1763 40.0229C39.1708 40.0281 39.1653 40.0328 39.1598 40.038C37.7063 41.4508 34.5488 43.506 32.73 41.5753C30.8514 39.5812 33.0492 35.9555 34.4659 34.4549C35.542 33.3155 36.8906 32.3845 38.3929 32.0424ZM68.8487 12.486L66.5828 14.8857C64.5717 17.0165 62.0718 18.5247 59.3247 19.2713L53.7892 13.4071C54.4934 10.4971 55.9172 7.84956 57.9288 5.71872C57.9288 5.71872 60.1904 3.32253 60.1942 3.31846C61.5719 1.85911 63.8637 1.86143 65.2397 3.31846L68.8487 7.14141C70.2396 8.61531 70.2396 11.0127 68.8487 12.486Z" fill="#999999"/>
</svg>
