<svg width="70" height="89" viewBox="0 0 70 89" fill="none" xmlns="http://www.w3.org/2000/svg">
<path d="M67.0829 43.2153L66.5829 43.2084V43.2153H67.0829ZM67.0829 43.1513H66.5828L66.5829 43.1582L67.0829 43.1513ZM2.91619 43.1511L3.41619 43.158V43.1511H2.91619ZM2.91619 43.2151H3.41624L3.41615 43.2082L2.91619 43.2151ZM23.2996 87.5985L23.3116 87.0985H23.2996V87.5985ZM23.3667 87.5985V87.0983L23.3549 87.0986L23.3667 87.5985ZM46.6324 87.5986L46.6482 87.0989L46.6403 87.0986H46.6324V87.5986ZM46.6993 87.5986V87.0986H46.6914L46.6835 87.0989L46.6993 87.5986ZM36.1965 14.2021L36.5451 14.5607L36.5527 14.553L36.1965 14.2021ZM36.1541 14.2453L36.5104 14.5962L36.5167 14.5895L36.1541 14.2453ZM35.3552 15.0563L35.7114 15.4072L35.7114 15.4072L35.3552 15.0563ZM34.6437 15.0563L34.2875 15.4072L34.2875 15.4072L34.6437 15.0563ZM33.8448 14.2453L33.4821 14.5896L33.4886 14.5962L33.8448 14.2453ZM33.8024 14.2021L33.4461 14.5531L33.4539 14.5606L33.8024 14.2021ZM28.1343 8.44772L27.778 8.79854L27.7781 8.79859L28.1343 8.44772ZM33.7505 3.15454L34.1987 2.93298L34.1986 2.93284L33.7505 3.15454ZM36.2486 3.15454L35.8004 2.93284L35.8003 2.93308L36.2486 3.15454ZM41.8646 8.44789L42.2208 8.79877L42.2209 8.79875L41.8646 8.44789ZM67.5 87.5997L67.5829 50.2903L66.5829 50.2881L66.5 87.5975L67.5 87.5997ZM67.0829 50.7892H69.9999V49.7892H67.0829V50.7892ZM67.5829 50.2892V43.2153H66.5829V50.2892H67.5829ZM67.5828 43.2221C67.5832 43.1962 67.5832 43.1702 67.5828 43.1444L66.5829 43.1582C66.5831 43.1747 66.5831 43.1916 66.5829 43.2084L67.5828 43.2221ZM67.5829 43.1513V25.4162H66.5829V43.1513H67.5829ZM67.5829 25.4162C67.5829 14.4607 60.2505 5.3731 51.0412 5.3731V6.3731C59.5226 6.3731 66.5829 14.8193 66.5829 25.4162H67.5829ZM51.0412 5.3731H43.001V6.3731H51.0412V5.3731ZM26.9981 5.3731H18.9579V6.3731H26.9981V5.3731ZM18.9579 5.3731C9.74855 5.3731 2.41619 14.4607 2.41619 25.4161H3.41619C3.41619 14.8193 10.4764 6.3731 18.9579 6.3731V5.3731ZM2.41619 25.4161V43.1511H3.41619V25.4161H2.41619ZM2.41624 43.1443C2.41589 43.1702 2.41589 43.196 2.41624 43.2219L3.41615 43.2082C3.41592 43.1915 3.41592 43.1747 3.41615 43.158L2.41624 43.1443ZM2.41619 43.2151V50.289H3.41619V43.2151H2.41619ZM0 50.789H2.91619V49.789H0V50.789ZM2.41619 50.289V87.5985H3.41619V50.289H2.41619ZM0 88.0985H23.2996V87.0985H0V88.0985ZM23.2877 88.0983C23.318 88.0991 23.3481 88.099 23.3785 88.0983L23.3549 87.0986C23.3401 87.099 23.3258 87.099 23.3115 87.0986L23.2877 88.0983ZM23.3667 88.0985H29.1662V87.0985H23.3667V88.0985ZM40.8329 88.0986H46.6324V87.0986H40.8329V88.0986ZM46.6165 88.0984C46.6369 88.099 46.6556 88.099 46.6658 88.099V87.099C46.6538 87.099 46.6503 87.099 46.6482 87.0989L46.6165 88.0984ZM46.6658 88.099C46.676 88.099 46.6948 88.099 46.7151 88.0984L46.6835 87.0989C46.6813 87.099 46.6779 87.099 46.6658 87.099V88.099ZM46.6993 88.0986H70V87.0986H46.6993V88.0986ZM35.848 13.8436C35.827 13.864 35.808 13.8836 35.7915 13.901L36.5167 14.5895C36.5281 14.5775 36.5371 14.5683 36.5451 14.5606L35.848 13.8436ZM35.7979 13.8944L34.999 14.7054L35.7114 15.4072L36.5103 14.5962L35.7979 13.8944ZM34.999 14.7054H34.9999L34.2875 15.4072C34.6827 15.8084 35.3162 15.8084 35.7114 15.4072L34.999 14.7054ZM34.9999 14.7054L34.201 13.8944L33.4886 14.5962L34.2875 15.4072L34.9999 14.7054ZM34.2074 13.901C34.1908 13.8835 34.1718 13.8639 34.1509 13.8436L33.4539 14.5606C33.4618 14.5683 33.4708 14.5775 33.4822 14.5895L34.2074 13.901ZM34.1586 13.8512L28.4905 8.09684L27.7781 8.79859L33.4462 14.553L34.1586 13.8512ZM28.4905 8.09689C27.8591 7.45568 27.4787 6.49126 27.4787 5.44163H26.4787C26.4787 6.72153 26.9409 7.94844 27.778 8.79854L28.4905 8.09689ZM27.4787 5.44163C27.4787 3.1718 28.9781 1.5 30.6245 1.5V0.5C28.2503 0.5 26.4787 2.81323 26.4787 5.44163H27.4787ZM30.6245 1.5C31.6885 1.5 32.702 2.16277 33.3023 3.37624L34.1986 2.93284C33.4642 1.4483 32.1409 0.5 30.6245 0.5V1.5ZM33.3022 3.37611C33.6334 4.046 34.2625 4.51444 34.9995 4.51444V3.51444C34.7139 3.51444 34.3952 3.3305 34.1987 2.93298L33.3022 3.37611ZM34.9995 4.51444C35.7365 4.51444 36.3658 4.04606 36.6969 3.37601L35.8003 2.93308C35.604 3.33044 35.2852 3.51444 34.9995 3.51444V4.51444ZM36.6968 3.37624C37.297 2.16277 38.3105 1.5 39.3745 1.5V0.5C37.8581 0.5 36.5348 1.4483 35.8004 2.93284L36.6968 3.37624ZM39.3745 1.5C41.0209 1.5 42.5204 3.1718 42.5204 5.44163H43.5204C43.5204 2.81323 41.7488 0.5 39.3745 0.5V1.5ZM42.5204 5.44163C42.5204 6.49145 42.1399 7.45584 41.5084 8.09704L42.2209 8.79875C43.0582 7.94863 43.5204 6.7217 43.5204 5.44163H42.5204ZM41.5084 8.09702L35.8403 13.8512L36.5527 14.553L42.2208 8.79877L41.5084 8.09702Z" fill="#422362"/>
<path d="M23.7488 41.874L23.9252 42.0511L23.9252 42.0511L23.7488 41.874ZM33.7914 23.3744L33.8944 23.1466L33.6185 23.0218L33.5483 23.3164L33.7914 23.3744ZM36.2076 23.3744L36.4508 23.3164L36.3805 23.0218L36.1046 23.1466L36.2076 23.3744ZM46.2503 41.874L46.0738 42.0511L46.0738 42.0511L46.2503 41.874ZM8.78832 49.8975L8.96289 49.7186L8.87094 49.6289L8.74448 49.6514L8.78832 49.8975ZM9.05097 50.102L9.18088 49.8884L9.18058 49.8882L9.05097 50.102ZM11.2267 53.0056L11.4647 52.9291L11.4647 52.9291L11.2267 53.0056ZM16.3932 34.2825L16.6023 34.4196L16.3932 34.2825ZM58.7727 53.0058L59.0107 53.0822L58.7727 53.0058ZM60.9484 50.102L61.0783 50.3156L61.0784 50.3155L60.9484 50.102ZM61.211 49.8975L61.2548 49.6514L61.1284 49.6289L61.0364 49.7186L61.211 49.8975ZM53.6061 34.2827L53.3971 34.4198L53.6061 34.2827ZM12.6135 49.1732C16.7301 47.7858 20.5951 45.3693 23.9252 42.0511L23.5723 41.6969C20.2933 44.9643 16.4933 47.338 12.4538 48.6994L12.6135 49.1732ZM23.9252 42.0511C28.7717 37.2216 32.3061 30.6824 34.0346 23.4324L33.5483 23.3164C31.839 30.4857 28.3465 36.9395 23.5723 41.6969L23.9252 42.0511ZM33.6884 23.6022C34.5222 23.9791 35.477 23.9791 36.3106 23.6022L36.1046 23.1466C35.402 23.4643 34.5972 23.4643 33.8944 23.1466L33.6884 23.6022ZM35.9644 23.4324C37.693 30.6824 41.2274 37.2216 46.0738 42.0511L46.4267 41.6969C41.6526 36.9395 38.1601 30.4857 36.4508 23.3164L35.9644 23.4324ZM46.0738 42.0511C49.4039 45.3693 53.269 47.7857 57.3856 49.1732L57.5453 48.6994C53.5057 47.3378 49.7058 44.9643 46.4267 41.6969L46.0738 42.0511ZM5.84763 50.496C6.84887 50.4373 7.84504 50.3195 8.83216 50.1436L8.74448 49.6514C7.77656 49.8238 6.7999 49.9393 5.81838 49.9969L5.84763 50.496ZM8.61375 50.0765C8.70622 50.1667 8.8088 50.2475 8.92135 50.3158L9.18058 49.8882C9.10267 49.841 9.02997 49.784 8.96289 49.7186L8.61375 50.0765ZM8.92105 50.3156C9.85854 50.8858 10.5974 51.8641 10.9886 53.082L11.4647 52.9291C11.0422 51.6139 10.2355 50.5299 9.18088 49.8884L8.92105 50.3156ZM10.9886 53.082L20.9584 84.1217L21.4344 83.9688L11.4647 52.9291L10.9886 53.082ZM5.95319 44.5737C10.0381 42.3343 13.7025 38.8406 16.6023 34.4196L16.1842 34.1454C13.3232 38.5072 9.71674 41.9402 5.71283 44.1353L5.95319 44.5737ZM16.6023 34.4196C19.7321 29.6479 21.9091 23.8851 22.902 17.754L22.4084 17.674C21.4258 23.7421 19.2721 29.4376 16.1842 34.1454L16.6023 34.4196ZM49.041 84.1217L59.0107 53.0822L58.5347 52.9293L48.5649 83.9688L49.041 84.1217ZM59.0107 53.0822C59.402 51.8641 60.1408 50.8858 61.0783 50.3156L60.8184 49.8884C59.7639 50.5299 58.9572 51.6139 58.5347 52.9293L59.0107 53.0822ZM61.0784 50.3155C61.1902 50.2474 61.2929 50.1669 61.3856 50.0765L61.0364 49.7186C60.9696 49.7837 60.8967 49.8408 60.8183 49.8885L61.0784 50.3155ZM61.1672 50.1436C62.1543 50.3194 63.1504 50.4375 64.1517 50.496L64.1809 49.9969C63.1994 49.9395 62.2228 49.8238 61.2548 49.6514L61.1672 50.1436ZM47.0974 17.7541C48.0902 23.8853 50.2672 29.6481 53.3971 34.4198L53.8151 34.1456C50.7272 29.4378 48.5736 23.7423 47.591 17.6742L47.0974 17.7541ZM53.3971 34.4198C56.2968 38.8407 59.9613 42.3343 64.0461 44.5739L64.2865 44.1355C60.2826 41.9402 56.6761 38.5073 53.8151 34.1456L53.3971 34.4198Z" fill="#422362"/>
</svg>
