<svg width="53" height="70" viewBox="0 0 53 70" fill="none" xmlns="http://www.w3.org/2000/svg">
<g clip-path="url(#clip0)">
<path d="M19.2908 36.3145C20.1418 36.3145 20.8316 35.6227 20.8316 34.7693C20.8316 33.9159 20.1418 33.2241 19.2908 33.2241C18.4398 33.2241 17.75 33.9159 17.75 34.7693C17.75 35.6227 18.4398 36.3145 19.2908 36.3145Z" fill="#422362"/>
<path d="M33.7087 36.3145C34.5597 36.3145 35.2495 35.6227 35.2495 34.7693C35.2495 33.9159 34.5597 33.2241 33.7087 33.2241C32.8577 33.2241 32.1678 33.9159 32.1678 34.7693C32.1678 35.6227 32.8577 36.3145 33.7087 36.3145Z" fill="#422362"/>
<path d="M29.8876 49.0568C27.736 50.4518 25.264 50.4518 23.1125 49.0568C23.0409 49.0104 22.9538 48.9943 22.8704 49.0122C22.787 49.0301 22.7141 49.0805 22.6677 49.1523C22.6213 49.2241 22.6053 49.3115 22.6232 49.3951C22.641 49.4787 22.6913 49.5519 22.7629 49.5983C23.9448 50.3642 25.2026 50.7523 26.5 50.7523C27.7974 50.7523 29.0552 50.3642 30.2361 49.5983C30.2729 49.576 30.3049 49.5465 30.3302 49.5116C30.3554 49.4767 30.3734 49.437 30.3831 49.395C30.3928 49.3529 30.3939 49.3094 30.3865 49.2669C30.3791 49.2244 30.3633 49.1838 30.34 49.1476C30.3166 49.1113 30.2863 49.0801 30.2507 49.0559C30.2151 49.0316 30.1751 49.0147 30.1329 49.0063C30.0907 48.9978 30.0472 48.9979 30.0051 49.0066C29.963 49.0153 29.923 49.0324 29.8876 49.0568Z" fill="#422362"/>
<path d="M24.4372 44.9158C24.6875 44.9274 24.9351 44.8595 25.1447 44.7218L25.2258 44.6759C26.0461 44.991 26.9535 44.991 27.7738 44.6759L27.8559 44.7218C28.0655 44.8595 28.3131 44.9274 28.5634 44.9158C28.6071 44.9183 28.6508 44.9119 28.6919 44.8968C28.733 44.8818 28.7707 44.8585 28.8025 44.8283C28.8343 44.7982 28.8596 44.7619 28.8769 44.7216C28.8942 44.6813 28.9032 44.6378 28.9032 44.594C28.9032 44.5501 28.8942 44.5067 28.8769 44.4664C28.8596 44.4261 28.8343 44.3897 28.8025 44.3596C28.7707 44.3295 28.733 44.3062 28.6919 44.2911C28.6508 44.2761 28.6071 44.2696 28.5634 44.2721C28.4261 44.2849 28.2888 44.2478 28.1764 44.1678C28.1088 44.1292 28.0297 44.0832 27.9246 44.0321C27.881 44.011 27.8331 44.0001 27.7847 44.0001C27.7362 44.0001 27.6884 44.011 27.6447 44.0321C27.2837 44.1899 26.8941 44.2714 26.5003 44.2714C26.1065 44.2714 25.7169 44.1899 25.3559 44.0321C25.3124 44.011 25.2648 44 25.2165 44C25.1682 44 25.1205 44.011 25.077 44.0321C24.973 44.0832 24.8929 44.1292 24.8253 44.1678C24.7129 44.2478 24.5755 44.2849 24.4382 44.2721C24.3946 44.2696 24.3508 44.2761 24.3097 44.2911C24.2686 44.3062 24.231 44.3295 24.1992 44.3596C24.1674 44.3897 24.142 44.4261 24.1247 44.4664C24.1074 44.5067 24.0985 44.5501 24.0985 44.594C24.0985 44.6378 24.1074 44.6813 24.1247 44.7216C24.142 44.7619 24.1674 44.7982 24.1992 44.8283C24.231 44.8585 24.2686 44.8818 24.3097 44.8968C24.3508 44.9119 24.3946 44.9183 24.4382 44.9158H24.4372Z" fill="#422362"/>
<path d="M51.9262 39.9601C50.7536 31.0134 49.5416 21.7621 43.707 14.9647C42.1355 13.1198 40.2833 11.5352 38.2189 10.2696C37.6509 4.5135 32.7339 0 26.7693 0C20.9212 0 16.0823 4.33927 15.3634 9.93159C13.0666 11.2437 11.014 12.9452 9.29687 14.9605C3.45815 21.7579 2.24608 31.0092 1.07355 39.9601C0.754152 42.391 0.423305 44.9107 0.00506496 47.3073C-0.00255396 47.349 -0.00182227 47.3919 0.00721751 47.4333C0.0162573 47.4748 0.0334249 47.5141 0.0577225 47.5488C0.0820202 47.5836 0.112963 47.6131 0.148754 47.6358C0.184544 47.6585 0.224468 47.6737 0.266205 47.6808C0.284333 47.6846 0.302829 47.6863 0.321346 47.686C0.39616 47.6852 0.468326 47.6581 0.525334 47.6095C0.582341 47.5609 0.620596 47.4939 0.633466 47.42C1.05483 45.0088 1.38567 42.4829 1.70612 40.0404C2.87032 31.1866 4.0699 22.0333 9.77961 15.381C11.3534 13.5367 13.2158 11.9612 15.2937 10.7162C15.2812 10.9332 15.274 11.1513 15.274 11.3714C15.2718 12.8056 15.5452 14.2268 16.0792 15.5573C12.1725 18.3065 9.66413 22.5581 9.66413 27.3231C9.66685 29.1776 9.77104 31.0306 9.97625 32.8737C8.21901 33.6624 7.20463 35.7523 7.58125 37.9777C7.97764 40.3284 9.77337 42.0008 11.8011 42.0175C12.1531 43.1876 12.5699 44.337 13.0496 45.4606C12.7031 45.6807 12.3432 45.8779 11.9613 46.0866C11.696 46.2264 11.4297 46.3672 11.1706 46.5164C10.3768 46.9755 9.77233 47.4554 9.3208 47.9948C8.75274 48.6699 8.41461 49.466 8.36987 50.2359C8.34414 50.6717 8.40773 51.1081 8.55672 51.5183C8.70572 51.9285 8.93695 52.3037 9.23615 52.6207C9.53535 52.9378 9.89618 53.19 10.2964 53.3618C10.6965 53.5336 11.1276 53.6213 11.5629 53.6195C11.6772 53.6195 11.7915 53.6133 11.9051 53.6007C11.988 53.5891 12.0632 53.5456 12.1145 53.4793C12.1659 53.4131 12.1895 53.3294 12.1803 53.2459C12.1711 53.1625 12.1298 53.086 12.0652 53.0326C12.0006 52.9792 11.9178 52.9532 11.8344 52.9601C11.466 53.0013 11.0931 52.9613 10.7417 52.843C10.3903 52.7246 10.0689 52.5307 9.79998 52.2749C9.53107 52.019 9.32112 51.7073 9.1848 51.3617C9.04848 51.016 8.98908 50.6446 9.01076 50.2735C9.04821 49.6412 9.33224 48.9798 9.81186 48.4101C10.2135 47.9322 10.7628 47.4961 11.4911 47.0746C11.7439 46.9285 12.0019 46.7929 12.2599 46.6573C12.6105 46.4716 12.9664 46.2733 13.3128 46.0584C14.9036 49.5661 16.9542 52.284 19.1203 54.1819C19.1203 54.1871 19.1203 54.1923 19.1203 54.1965C19.6234 56.3533 19.425 58.6149 18.5543 60.6506L18.5387 60.6308C18.5165 60.592 18.4863 60.5583 18.4503 60.5318C18.4143 60.5053 18.3732 60.4867 18.3295 60.4771C18.2859 60.4676 18.2408 60.4672 18.197 60.4762C18.1533 60.4851 18.1119 60.5031 18.0755 60.529C18.0391 60.555 18.0085 60.5882 17.9856 60.6267C17.9628 60.6652 17.9482 60.708 17.9429 60.7525C17.9375 60.7969 17.9415 60.842 17.9545 60.8848C17.9675 60.9277 17.9893 60.9673 18.0185 61.0012C18.0914 61.1055 18.1725 61.2098 18.2537 61.3079C17.129 63.4432 15.2966 65.1181 13.0725 66.0436C12.9324 66.0989 12.8162 66.2017 12.7439 66.3341C12.6717 66.4665 12.648 66.6202 12.6771 66.7682C12.7062 66.9163 12.7862 67.0495 12.9031 67.1445C13.02 67.2396 13.1665 67.2905 13.317 67.2884C13.4004 67.2882 13.4831 67.2719 13.5604 67.2404C15.9364 66.246 17.9171 64.4904 19.1931 62.248C20.6601 63.4593 22.7815 64.2741 25.1234 64.5058C24.4648 65.0462 24.03 65.9664 24.03 66.9983C24.03 68.653 25.138 70 26.5009 70C27.8638 70 28.9718 68.653 28.9718 66.9983C28.9718 65.9612 28.537 65.0462 27.8773 64.5058C30.2203 64.2741 32.3417 63.4624 33.8076 62.248C35.0839 64.4906 37.065 66.2461 39.4414 67.2404C39.5197 67.2723 39.6036 67.2886 39.6882 67.288C39.7728 67.2875 39.8565 67.2703 39.9344 67.2374C40.0124 67.2044 40.0831 67.1564 40.1426 67.0961C40.2021 67.0357 40.2491 66.9642 40.281 66.8856C40.3129 66.807 40.329 66.7229 40.3285 66.6381C40.328 66.5533 40.3108 66.4693 40.278 66.3912C40.2452 66.313 40.1973 66.2421 40.1371 66.1824C40.0769 66.1228 40.0056 66.0756 39.9272 66.0436C37.7037 65.1172 35.8724 63.4416 34.7492 61.3058C34.8303 61.2015 34.9115 61.1034 34.9843 60.9991C35.0285 60.9291 35.0442 60.8448 35.0281 60.7635C35.0119 60.6823 34.9652 60.6104 34.8977 60.5628C34.8301 60.5151 34.7468 60.4954 34.6651 60.5077C34.5834 60.5199 34.5096 60.5633 34.4589 60.6287L34.4443 60.6475C33.5737 58.6122 33.3753 56.3509 33.8784 54.1944C33.8784 54.1944 33.8784 54.185 33.8784 54.1798C35.9165 52.3978 37.8444 49.8927 39.3925 46.6896C39.714 46.9296 40.0479 47.1497 40.3757 47.3636L40.5837 47.4961C41.0469 47.7825 41.482 48.1123 41.8832 48.481C42.2612 48.8299 42.5472 49.2672 42.7155 49.7539C42.8264 50.1049 42.8515 50.4775 42.7887 50.8403C42.7258 51.2031 42.5768 51.5454 42.3543 51.8383C42.1318 52.1312 41.8423 52.3661 41.5103 52.5232C41.1782 52.6803 40.8133 52.755 40.4464 52.741C40.4039 52.7389 40.3614 52.7454 40.3214 52.7601C40.2814 52.7748 40.2448 52.7975 40.2137 52.8267C40.1827 52.8559 40.1578 52.8911 40.1406 52.9301C40.1233 52.9692 40.1141 53.0113 40.1135 53.054C40.1119 53.0965 40.1188 53.1389 40.1337 53.1788C40.1486 53.2186 40.1712 53.2551 40.2002 53.2861C40.2292 53.3172 40.2641 53.3421 40.3028 53.3596C40.3414 53.3771 40.3832 53.3867 40.4256 53.3879H40.5244C40.986 53.3895 41.4414 53.2819 41.8536 53.0739C42.2659 52.8658 42.6234 52.5631 42.8971 52.1905C43.1708 51.8178 43.353 51.3856 43.4288 50.9291C43.5046 50.4725 43.472 50.0045 43.3335 49.563C43.1341 48.9734 42.7908 48.4433 42.3347 48.0209C41.9051 47.6223 41.4379 47.2666 40.9396 46.9588L40.7315 46.8253C40.3757 46.5947 40.0146 46.3568 39.6776 46.0949C40.276 44.7714 40.7845 43.4088 41.1997 42.0165C43.2264 41.9998 45.0231 40.3273 45.4195 37.9767C45.7951 35.7523 44.7807 33.6624 43.0204 32.8737C43.2254 31.0306 43.3296 29.1776 43.3325 27.3231C43.3325 22.7324 40.9989 18.6101 37.3346 15.8557C37.954 14.4417 38.2728 12.9138 38.2709 11.3693C38.2709 11.265 38.2709 11.1606 38.2626 11.0563C40.1161 12.2458 41.7854 13.7018 43.217 15.3778C48.9298 22.0302 50.1304 31.1835 51.2905 40.0362C51.6109 42.4787 51.9418 45.0046 52.3631 47.4158C52.376 47.4897 52.4143 47.5568 52.4713 47.6054C52.5283 47.6539 52.6004 47.681 52.6753 47.6818C52.6938 47.6821 52.7123 47.6804 52.7304 47.6766C52.8142 47.6618 52.8888 47.6143 52.9377 47.5445C52.9867 47.4747 53.006 47.3883 52.9915 47.3041C52.5754 44.9107 52.2456 42.391 51.9262 39.9601ZM26.7693 1.28853C31.8735 1.28853 36.1142 5.00179 36.8664 9.83456C36.8602 9.84395 36.8518 9.84916 36.8466 9.85855C36.812 9.92212 36.8005 9.99576 36.8139 10.0669C36.8274 10.1381 36.8651 10.2023 36.9205 10.2488C37.0533 11.4091 36.9807 12.5839 36.7062 13.7189C35.7303 12.9761 34.4704 12.3459 32.994 11.868C32.8307 10.7725 31.6072 9.94515 30.0809 9.94515C29.7908 9.94487 29.5016 9.97671 29.2184 10.0401C28.6379 9.075 27.7213 8.50638 26.7215 8.50638C25.7216 8.50638 24.8082 9.075 24.2245 10.0401C23.9414 9.97681 23.6521 9.94497 23.362 9.94515C21.9221 9.94515 20.7319 10.6932 20.4801 11.7188C19.035 12.1414 17.7751 12.7111 16.7534 13.3882C16.6154 12.7245 16.5457 12.0483 16.5453 11.3704C16.5536 5.81142 21.1356 1.28853 26.7693 1.28853ZM28.3299 66.9983C28.3299 68.2983 27.5101 69.3563 26.5019 69.3563C25.4938 69.3563 24.6729 68.2983 24.6729 66.9983C24.6729 65.6983 25.4938 64.6393 26.5019 64.6393C27.5101 64.6393 28.3278 65.6973 28.3278 66.9983H28.3299ZM33.5007 61.6772C31.8756 63.0764 29.2892 63.934 26.5019 63.934C23.7147 63.934 21.1272 63.0764 19.5021 61.6772C20.4546 59.712 20.8384 57.5183 20.6102 55.3452C22.6171 56.7308 24.6677 57.4381 26.5019 57.4381C28.3362 57.4381 30.3868 56.7308 32.3937 55.3452C32.1664 57.5171 32.5499 59.7094 33.5007 61.6741V61.6772ZM26.5019 56.1475C22.0657 56.1475 17.2663 51.6747 14.3803 45.2435C14.4855 45.1397 14.5852 45.0304 14.6788 44.9159C14.976 44.5567 15.1909 44.1364 15.3083 43.6848C15.4883 42.9659 15.379 42.1333 14.9962 41.3414C14.6539 40.6247 14.1326 40.008 13.6676 39.4979L13.499 39.3163C13.0485 38.827 12.622 38.3648 12.3775 37.8035C12.0466 37.047 12.0789 36.107 12.4618 35.2869C12.8145 34.5315 13.4626 33.8638 14.2866 33.4089C14.6511 33.2146 15.0258 33.0405 15.4092 32.8872C16.0605 32.616 16.7347 32.3343 17.3007 31.8574C18.237 31.0729 18.6917 29.921 19.0173 28.8985C19.3121 27.9698 19.5419 27.0215 19.705 26.0606C20.7415 28.0599 22.3214 29.724 24.262 30.86C27.4758 32.738 31.3065 32.9342 34.2883 32.9039H34.6004C35.9175 32.8851 37.2836 32.8674 38.4676 33.3693C39.2542 33.6945 39.9199 34.2581 40.3715 34.9812C40.8112 35.6982 40.9678 36.5541 40.8105 37.3809C40.7065 37.8848 40.4651 38.4055 40.075 38.9751C39.8294 39.334 39.5454 39.6825 39.2718 40.0185C39.1542 40.1625 39.0377 40.3054 38.9233 40.4504C38.557 40.9137 38.144 41.4739 37.8652 42.1146C37.5711 42.7497 37.4701 43.4577 37.5749 44.1501C37.697 44.7495 37.9736 45.3063 38.3771 45.7652C35.4775 51.9157 30.8144 56.1465 26.4999 56.1465L26.5019 56.1475ZM42.0507 27.3231C42.0453 29.297 41.9234 31.2689 41.6855 33.2284C41.667 33.3812 41.7037 33.5355 41.7891 33.6634C41.8744 33.7913 42.0027 33.8843 42.1506 33.9254C43.5697 34.3218 44.4488 36.0068 44.1523 37.7617C43.8402 39.6032 42.3451 40.921 40.8168 40.7029C40.6633 40.6815 40.5072 40.7164 40.3773 40.8011C40.2473 40.8858 40.1522 41.0147 40.1093 41.1641C39.7259 42.5089 39.2497 43.8253 38.684 45.1037C38.4507 44.7866 38.2898 44.4218 38.2127 44.0354C38.0982 43.3927 38.2834 42.776 38.4592 42.3712C38.7172 41.8244 39.0438 41.3128 39.431 40.849C39.5433 40.7099 39.6574 40.5687 39.7733 40.4254C40.0552 40.078 40.3476 39.719 40.6056 39.3393C41.0446 38.6976 41.3183 38.0998 41.4379 37.5103C41.6286 36.523 41.443 35.4998 40.9177 34.6432C40.3963 33.804 39.6262 33.1495 38.7152 32.7714C37.4074 32.2174 35.9748 32.2372 34.59 32.2497H34.2779C31.3835 32.2821 27.6599 32.0891 24.5814 30.2945C22.4669 29.0562 20.8133 27.1597 19.8715 24.8931C19.8494 24.828 19.8065 24.772 19.7495 24.7338C19.6925 24.6956 19.6245 24.6772 19.5561 24.6816C19.4876 24.686 19.4225 24.7129 19.3709 24.7581C19.3192 24.8033 19.2838 24.8643 19.2701 24.9317C19.2343 24.9754 19.2109 25.0281 19.2025 25.0841C19.0485 26.3118 18.782 27.5226 18.4066 28.7013C18.109 29.6403 17.696 30.6837 16.8897 31.3619C16.3997 31.7792 15.7994 32.0254 15.1647 32.2904C14.7589 32.4516 14.3622 32.6351 13.9766 32.8403C13.0402 33.3619 12.2911 34.1361 11.8823 35.0125C11.4214 35.9974 11.387 37.1368 11.7907 38.0601C12.0799 38.7216 12.5627 39.2454 13.0298 39.7524L13.1952 39.9319C13.6499 40.4306 14.1139 40.9752 14.4187 41.619C14.7309 42.2752 14.8266 42.9534 14.683 43.5272C14.5867 43.8874 14.4143 44.2226 14.1774 44.5101C14.1524 44.5403 14.1243 44.5695 14.0993 44.5998C13.6276 43.4801 13.2239 42.3327 12.8904 41.1641C12.8522 41.0295 12.7713 40.9111 12.66 40.8268C12.5487 40.7424 12.413 40.6967 12.2734 40.6967C12.2428 40.6967 12.2122 40.6988 12.1819 40.7029C10.6546 40.921 9.15849 39.6032 8.85262 37.7617C8.5561 36.0068 9.43524 34.3187 10.8543 33.9254C11.002 33.8839 11.13 33.7909 11.2153 33.6631C11.3006 33.5353 11.3375 33.3811 11.3194 33.2284C11.0814 31.2689 10.9594 29.297 10.9542 27.3231C10.9542 19.762 17.9301 13.6094 26.5051 13.6094C35.08 13.6094 42.0507 19.762 42.0507 27.3231ZM26.4999 12.3208C23.2231 12.3057 20.0027 13.1757 17.1768 14.8395C17.0811 14.5828 16.9948 14.323 16.9209 14.0611C17.954 13.3308 19.2941 12.7215 20.8536 12.2875C20.9153 12.2699 20.9704 12.2343 21.0119 12.1853C21.0534 12.1362 21.0794 12.0759 21.0867 12.012C21.173 11.2159 22.176 10.5931 23.3683 10.5931C23.6828 10.5919 23.9958 10.6369 24.2973 10.7266C24.3691 10.7484 24.4462 10.7442 24.5152 10.7148C24.5842 10.6855 24.6407 10.6328 24.675 10.5659C25.1307 9.68118 25.8975 9.15325 26.7246 9.15325C27.5517 9.15325 28.3174 9.68118 28.7742 10.5659C28.8084 10.6328 28.865 10.6855 28.934 10.7148C29.003 10.7442 29.0801 10.7484 29.1518 10.7266C29.4534 10.6369 29.7664 10.5919 30.0809 10.5931C31.3377 10.5931 32.3646 11.2754 32.3698 12.1153C32.3703 12.1835 32.3924 12.2499 32.433 12.3046C32.4736 12.3594 32.5305 12.3998 32.5956 12.42C34.1999 12.9176 35.5326 13.5958 36.5147 14.4023C36.4377 14.6437 36.3514 14.8823 36.2557 15.118C33.334 13.2769 29.9505 12.3068 26.4999 12.3208Z" fill="#422362"/>
</g>
<defs>
<clipPath id="clip0">
<rect width="53" height="70" fill="white" transform="matrix(1 0 0 -1 0 70)"/>
</clipPath>
</defs>
</svg>
