<svg width="154" height="18" viewBox="0 0 154 18" fill="none" xmlns="http://www.w3.org/2000/svg">
<path d="M88.8348 9.42857L87.3535 8.14286L88.8348 6.85714L90.202 8.14286L88.8348 9.42857Z" fill="white"/>
<path d="M49.6736 8.16435C48.974 7.80114 48.2743 7.61953 47.5747 7.25632C46.4753 6.7115 45.076 6.16669 44.1765 5.44026C43.177 4.62304 42.9771 3.53341 43.7767 2.62538C44.6762 1.62655 46.1754 1.44494 47.6746 1.44494C47.9745 1.44494 48.3743 1.44494 48.6741 1.53574C48.5742 1.44494 48.4742 1.26334 48.3743 1.08173C48.2743 0.990927 48.3743 0.990927 48.3743 0.900124C46.6752 0.809321 44.8761 0.809321 43.4769 1.44494C42.2775 2.08056 41.7778 3.17019 41.7778 4.25983C41.7778 5.44026 42.8772 6.4391 44.0766 7.07471C46.1754 8.25515 48.874 8.98157 50.773 10.2528C51.8724 10.9792 51.7725 12.4321 51.0728 13.4309C50.4732 14.2481 49.1738 14.6113 47.8745 14.7021C47.7746 14.793 47.5747 14.793 47.4748 14.793C46.8751 14.9746 46.0755 14.9746 45.4758 14.8838C45.076 14.8838 44.6762 14.793 44.2765 14.793C45.176 15.1562 46.2754 15.4286 47.6746 15.4286C51.0728 15.4286 53.1717 13.8849 53.1717 11.5241C53.0718 10.0712 51.9724 9.25398 49.6736 8.16435Z" fill="white"/>
<path d="M79.3385 15.0688C79.1289 15.0688 78.9194 14.9788 78.7099 14.8889C78.5003 14.7989 78.3955 14.619 78.186 14.3492L77.7669 13.7196L71.6901 0.857143L66.1372 13.2698L65.8229 13.8095C65.6134 14.1693 64.5657 15.4286 64.5657 15.4286H66.4516C66.4516 15.4286 66.6611 14.0794 66.7659 13.8095C67.9184 11.1111 71.5854 2.65608 71.5854 2.65608C71.5854 2.65608 75.881 13.0899 76.1953 13.8095C76.1953 13.8995 76.4049 15.3386 76.4049 15.3386H79.7576V15.0688H79.3385Z" fill="white"/>
<path d="M118.843 0.857143C120.541 0.857143 122.027 1.21693 123.513 1.84656C124.892 2.47619 126.059 3.37566 126.908 4.54497C127.757 5.62434 128.182 6.8836 128.182 8.14286C128.182 9.40212 127.757 10.6614 126.908 11.7407C126.059 12.8201 124.998 13.7196 123.513 14.4392C122.77 14.7989 122.027 14.9788 121.284 15.1587C120.541 15.3386 119.692 15.4286 118.843 15.4286C117.57 15.4286 116.509 15.2487 115.341 14.8889C114.811 14.709 114.28 14.4392 113.856 14.1693C113.431 13.8995 113.007 13.6296 112.582 13.2698C111.839 12.6402 111.203 11.8307 110.778 10.9312C110.354 10.0317 110.141 9.13227 110.141 8.2328C110.141 6.97354 110.566 5.80423 111.309 4.63492C112.052 3.55556 113.113 2.65608 114.492 1.93651C115.66 1.21693 117.145 0.857143 118.843 0.857143ZM111.627 8.2328C111.627 9.40212 111.945 10.4815 112.582 11.4709C113.219 12.4603 114.068 13.3598 115.235 13.9894C116.402 14.619 117.57 14.8889 118.843 14.8889C120.753 14.8889 122.239 14.5291 123.406 13.8995C124.574 13.1799 125.317 12.3704 125.741 11.381C126.166 10.3915 126.378 9.31217 126.378 8.14286C126.378 6.97355 125.953 5.80423 125.21 4.81481C124.468 3.73545 123.406 2.92593 122.239 2.2963C121.072 1.66667 119.904 1.30688 118.737 1.30688C117.039 1.30688 115.66 1.66667 114.598 2.2963C113.537 3.01587 112.794 3.8254 112.264 4.90476C111.945 6.07407 111.627 7.15344 111.627 8.2328Z" fill="white"/>
<path d="M129.457 13.8534C129.457 13.661 129.457 13.2762 129.457 12.699C129.457 9.81285 129.457 2.1165 129.457 1.44307C129.457 1.34686 129.148 0 129.148 0H132.756C134.199 0 136.055 0.384818 137.292 0.769635C138.529 1.25066 139.56 1.82788 140.487 2.59752C141.415 3.36715 142.137 4.13679 142.652 5.19504C143.168 6.15708 143.374 6.92672 143.374 7.98497C143.374 8.94701 143.168 10.1015 142.652 10.9673C142.137 11.8331 141.415 12.699 140.487 13.3724C139.56 14.0458 138.426 14.5269 137.189 14.9117C135.848 15.2965 134.508 15.3927 132.962 15.3927H129.148C129.045 15.6813 129.457 14.142 129.457 13.8534ZM131.519 0.577226C131.313 0.673431 131.003 0.86584 131.003 1.05825C131.003 1.25066 131.003 1.63547 131.003 1.63547V14.2383C131.003 14.5269 131.107 14.7193 131.21 14.9117C131.313 15.1041 131.519 15.1041 131.828 15.1041C133.89 15.3927 136.055 14.9117 137.91 13.9496C138.426 13.661 138.941 13.4686 139.353 13.0838C140.281 12.4104 140.9 11.6407 141.312 10.8711C141.724 10.0053 141.931 9.13942 141.931 8.08117C141.931 7.11913 141.724 6.15708 141.209 5.29124C140.693 4.3292 140.075 3.55956 139.25 2.78993C138.426 2.1165 137.395 1.44307 136.261 1.05825C134.921 0.577226 133.374 0.288613 131.931 0.384818C131.725 0.577226 131.622 0.577226 131.519 0.577226Z" fill="white"/>
<path d="M35.3312 7.87302C35.3312 7.42328 35.3312 7.15344 35.5311 6.97355L40.8283 0.857143H39.3291C39.429 0.94709 39.0292 1.57672 38.9293 1.84656C38.2297 3.28571 34.7315 6.79365 34.6316 6.8836C34.4317 6.7037 31.3333 3.28571 30.2339 2.02645C30.034 1.84656 29.5343 1.12698 29.3344 0.94709H27.5354L33.4322 7.06349C33.7321 7.24339 33.832 7.51323 33.832 7.87302V13.8995C33.832 14.2593 33.5322 15.4286 33.5322 15.4286H35.731C35.731 15.3386 35.4312 14.2593 35.4312 13.8995L35.3312 7.87302Z" fill="white"/>
<path d="M74.0606 8.57143H68.3636V9.42857H74.0606V8.57143Z" fill="white"/>
<path d="M147.182 14.7C146.978 14.7 146.774 14.6089 146.671 14.4268C146.569 14.3357 146.467 14.1536 146.467 14.0625V8.23393C146.774 8.23393 146.365 8.23393 147.59 8.23393C148.611 8.23393 150.347 8.59821 150.347 8.59821V7.50536C150.347 7.50536 148.509 7.77857 147.59 7.86964C146.467 7.86964 146.569 7.86964 146.365 7.86964V3.31607C146.365 3.31607 146.365 2.31429 146.467 2.04107C146.569 1.85893 146.569 1.76786 146.774 1.67679C146.876 1.58571 147.08 1.58571 147.182 1.58571H148.101C149.939 1.58571 153.614 1.58571 153.614 1.58571L153.818 0.857143H144.425L144.732 2.22321C144.732 2.49643 144.732 13.5161 144.732 13.7893C144.732 13.8804 144.323 15.4286 144.323 15.4286H153.716L153.614 14.7C153.818 14.7 147.386 14.7911 147.182 14.7Z" fill="white"/>
<path d="M53.1717 1.03815L53.3695 1.7622C53.3695 1.7622 57.7214 1.7622 58.3148 1.7622C58.6115 1.7622 59.1061 1.7622 59.3039 1.85271C59.4028 1.94321 59.4028 2.03372 59.5017 2.12422C59.6006 2.39574 59.6006 3.3913 59.6006 3.3913C59.6006 3.3913 59.6006 12.5324 59.6006 13.3469C59.6006 13.89 59.6006 13.709 59.6006 13.89C59.6006 13.9805 59.205 15.4286 59.205 15.4286H61.3809C61.3809 15.4286 60.9853 13.9805 60.9853 13.7995C60.9853 13.6185 60.9853 13.6185 60.9853 13.1659C60.9853 12.4419 60.9853 3.3008 60.9853 3.3008C60.9853 3.3008 60.9853 2.30524 61.0842 2.03372C61.1831 1.85271 61.1831 1.7622 61.3809 1.67169C61.4798 1.58119 61.8754 1.58119 62.1721 1.58119C62.6667 1.58119 67.2163 1.58119 67.2163 1.58119L67.4141 0.857143H53.1717V1.03815Z" fill="white"/>
<path d="M92.5449 17.0912C90.7693 17.0912 89.0922 16.7305 87.4152 16.2795C86.626 16.009 85.8368 15.7384 85.0476 15.4678C84.7517 15.3776 84.3571 15.1972 84.1598 15.0169C83.9625 14.8365 83.8638 14.5659 83.8638 14.4757C83.8638 14.3855 83.8638 14.2052 83.8638 13.9346V2.48055C83.9625 2.11979 84.2584 0.857143 84.2584 0.857143H82.0882C82.0882 0.857143 82.3841 2.0296 82.3841 2.39036V13.8444C82.3841 14.2052 82.1868 14.4757 81.9895 14.7463C81.6936 15.0169 81.3976 15.1071 81.003 15.1071H80.7071V15.3776C81.6936 15.3776 83.1733 15.2874 84.5544 15.8286C84.7517 15.9188 85.8368 16.3697 86.8233 16.8207C88.599 17.6324 89.8814 17.9029 91.3612 17.9931C93.0382 18.0833 94.5179 17.2716 95.899 16.4599C94.8139 17.001 93.7287 17.0912 92.5449 17.0912Z" fill="white"/>
<path d="M12.6429 14.2593C11.5214 14.709 9.992 14.9788 8.76849 14.9788C7.44302 14.9788 6.21951 14.619 5.09796 13.9894C3.97641 13.3598 3.16073 12.5503 2.54898 11.4709C1.93722 10.4815 1.52939 9.22222 1.63135 7.69312C1.73331 6.52381 2.03918 5.80423 2.65094 4.72487C3.26269 3.73545 4.07837 2.92593 5.19992 2.20635C6.21951 1.57672 7.44302 1.21693 8.87045 1.21693C10.094 1.21693 11.6233 1.48677 12.7449 1.93651C13.7645 2.2963 14.6821 3.01587 14.988 3.46561L15.1919 2.65608C15.09 2.47619 13.9684 1.57672 12.3371 1.12698C11.4194 0.94709 10.3998 0.857143 9.27829 0.857143C7.44302 0.857143 5.81167 1.21693 4.38425 1.93651C2.95682 2.65608 1.93722 3.55556 1.12155 4.72487C0.407837 5.80423 0 6.8836 0 7.96296C0 7.96296 0 8.05291 0 8.14286C0 9.31217 0.407837 10.4815 1.12155 11.5608C1.83527 12.6402 2.95682 13.6296 4.38425 14.3492C5.81167 15.0688 7.44302 15.4286 9.27829 15.4286C10.5018 15.4286 11.4194 15.3386 12.2351 15.0688C13.8665 14.619 14.988 13.8095 15.09 13.5397L14.886 12.7302C14.5802 13.1799 13.6625 13.8095 12.6429 14.2593Z" fill="white"/>
<path d="M49.1196 1.17732C47.8358 0.817121 46.873 0.817121 45.9101 0.907171C45.3752 0.907171 45.0542 0.997221 44.6263 0.997221C44.7332 1.08727 44.7332 1.17732 44.8402 1.35742C45.0542 1.35742 45.3752 1.35742 45.5891 1.35742C46.873 1.35742 48.4777 1.53752 49.6546 1.98777C50.7244 2.34797 51.6873 2.97832 52.0083 3.42857L52.2222 2.70817C52.2222 2.70817 51.3663 1.71762 49.1196 1.17732Z" fill="white"/>
<path d="M44.8203 15.1192C46.1213 15.4672 47.097 15.4672 48.0727 15.3802C48.6148 15.3802 48.9401 15.2932 49.3737 15.2932C49.2653 15.2062 49.3737 14.9452 49.3737 14.8582C49.1569 14.8582 46.4465 15.1192 44.6034 14.4232C43.6277 14.0752 42.7603 13.4662 42.0014 12.8571L41.7846 13.7272C41.6762 13.6402 42.8688 14.5972 44.8203 15.1192Z" fill="white"/>
<path d="M106.728 14.2593C105.599 14.709 104.06 14.9788 102.828 14.9788C101.493 14.9788 100.262 14.619 99.1324 13.9894C98.0033 13.3598 97.1821 12.5503 96.5662 11.4709C95.9503 10.4815 95.5397 9.22222 95.6424 7.69312C95.745 6.43386 95.9503 5.71429 96.5662 4.72487C97.1821 3.73545 98.0033 2.92593 99.1324 2.20635C100.159 1.57672 101.391 1.21693 102.828 1.21693C104.06 1.21693 105.599 1.48677 106.728 1.93651C107.755 2.2963 108.679 3.01587 108.987 3.46561L109.192 2.65608C109.089 2.47619 107.96 1.57672 106.318 1.12698C105.497 0.94709 104.47 0.857143 103.341 0.857143C101.493 0.857143 99.8509 1.21693 98.4139 1.93651C96.9768 2.65608 95.9503 3.55556 95.1291 4.72487C94.4106 5.80423 94 6.8836 94 7.96296C94 8.05291 94 8.05291 94 8.14286C94 9.31217 94.4106 10.4815 95.1291 11.5608C95.8477 12.6402 96.9768 13.6296 98.4139 14.3492C99.8509 15.0688 101.493 15.4286 103.341 15.4286C104.573 15.4286 105.497 15.3386 106.318 15.0688C107.96 14.619 109.089 13.8095 109.192 13.5397L108.987 12.7302C108.679 13.1799 107.755 13.8095 106.728 14.2593Z" fill="white"/>
<path d="M28.4848 15.4286L26.4502 13.89L22.1775 8.73114C22.5844 8.73114 22.9913 8.64064 23.2965 8.64064C24.5173 8.45963 25.2294 8.18811 26.0433 7.46406C26.7554 6.64951 27.0606 5.92547 27.0606 4.8394C27.0606 3.75333 26.6537 2.48625 25.8398 1.85271C25.026 1.21917 23.9069 0.857143 22.5844 0.857143H17.7013C17.5996 0.857143 17.5996 0.857143 17.4978 0.857143H17.0909L17.3961 2.21473V2.30524C17.3961 2.30524 17.3961 13.709 17.3961 13.89C17.2944 14.252 17.0909 15.4286 17.0909 15.4286H19.329C19.329 15.4286 19.1255 14.252 19.0238 13.89V1.7622C19.0238 1.58119 19.2273 1.40018 19.4307 1.40018H22.2792C23.1948 1.40018 24.1104 1.67169 24.7208 2.21473C25.3312 2.75776 25.9416 3.75333 25.9416 4.74889C25.9416 5.92547 25.4329 6.92103 24.5173 7.46406C23.3983 8.0976 21.7706 8.0976 21.4654 8.0976C21.1602 8.0976 21.0584 8.0976 20.7532 8.0976C20.855 8.18811 24.619 13.1659 25.6364 14.3425C25.8398 14.5235 26.5519 15.4286 26.5519 15.4286H28.4848Z" fill="white"/>
</svg>
