<svg width="300" height="35" viewBox="0 0 300 35" fill="none" xmlns="http://www.w3.org/2000/svg">
<path d="M173.259 18.3333L170.37 15.8333L173.259 13.3333L175.926 15.8333L173.259 18.3333Z" fill="#525252"/>
<path d="M96.8811 15.8751C95.5166 15.1689 94.1521 14.8158 92.7876 14.1095C90.6433 13.0501 87.9143 11.9908 86.1599 10.5783C84.2106 8.98924 83.8207 6.87051 85.3802 5.1049C87.1346 3.16273 90.0585 2.80961 92.9825 2.80961C93.5673 2.80961 94.347 2.80961 94.9318 2.98617C94.7369 2.80961 94.542 2.45649 94.347 2.10336C94.1521 1.9268 94.347 1.9268 94.347 1.75024C91.0332 1.57368 87.5244 1.57368 84.7954 2.80961C82.4562 4.04553 81.4815 6.16427 81.4815 8.283C81.4815 10.5783 83.6258 12.5205 85.965 13.7564C90.0585 16.0517 95.3217 17.4642 99.0254 19.936C101.17 21.3485 100.975 24.1735 99.6102 26.1157C98.4406 27.7047 95.9065 28.411 93.3724 28.5875C93.1774 28.7641 92.7876 28.7641 92.5927 28.7641C91.4231 29.1172 89.8636 29.1172 88.694 28.9406C87.9143 28.9406 87.1346 28.7641 86.3548 28.7641C88.1092 29.4703 90.2535 30 92.9825 30C99.6102 30 103.704 26.9985 103.704 22.4079C103.509 19.5829 101.365 17.9939 96.8811 15.8751Z" fill="#525252"/>
<path d="M154.738 29.3004C154.33 29.3004 153.921 29.1255 153.512 28.9506C153.104 28.7757 152.899 28.4259 152.49 27.9012L151.673 26.677L139.821 1.66667L128.991 25.8025L128.378 26.8519C127.969 27.5514 125.926 30 125.926 30H129.604C129.604 30 130.013 27.3765 130.217 26.8519C132.465 21.6049 139.617 5.16461 139.617 5.16461C139.617 5.16461 147.995 25.4527 148.608 26.8519C148.608 27.0267 149.017 29.8251 149.017 29.8251H155.556V29.3004H154.738Z" fill="#525252"/>
<path d="M231.787 1.66667C235.098 1.66667 237.996 2.36626 240.893 3.59053C243.584 4.81481 245.861 6.56379 247.516 8.83745C249.172 10.9362 250 13.3848 250 15.8333C250 18.2819 249.172 20.7305 247.516 22.8292C245.861 24.928 243.791 26.677 240.893 28.0761C239.445 28.7757 237.996 29.1255 236.547 29.4753C235.098 29.8251 233.442 30 231.787 30C229.303 30 227.233 29.6502 224.956 28.9506C223.922 28.6008 222.887 28.0761 222.059 27.5514C221.231 27.0267 220.403 26.5021 219.575 25.8025C218.126 24.5782 216.885 23.0041 216.057 21.2551C215.229 19.5062 214.815 17.7572 214.815 16.0082C214.815 13.5597 215.643 11.286 217.092 9.01235C218.54 6.91358 220.61 5.16461 223.301 3.76543C225.577 2.36626 228.475 1.66667 231.787 1.66667ZM217.712 16.0082C217.712 18.2819 218.333 20.3807 219.575 22.3045C220.817 24.2284 222.473 25.9774 224.749 27.2016C227.026 28.4259 229.303 28.9506 231.787 28.9506C235.512 28.9506 238.41 28.251 240.686 27.0267C242.963 25.6276 244.412 24.0535 245.24 22.1296C246.068 20.2058 246.482 18.107 246.482 15.8333C246.482 13.5597 245.654 11.286 244.205 9.36214C242.756 7.26337 240.686 5.6893 238.41 4.46502C236.133 3.24074 233.856 2.54115 231.58 2.54115C228.268 2.54115 225.577 3.24074 223.508 4.46502C221.438 5.8642 219.989 7.43827 218.954 9.53704C218.333 11.8107 217.712 13.9095 217.712 16.0082Z" fill="#525252"/>
<path d="M252.487 26.9372C252.487 26.5631 252.487 25.8148 252.487 24.6925C252.487 19.0805 252.487 4.11541 252.487 2.80596C252.487 2.6189 251.884 0 251.884 0H258.921C261.736 0 265.355 0.748256 267.767 1.49651C270.18 2.43183 272.191 3.55422 274 5.05073C275.81 6.54724 277.217 8.04376 278.222 10.1015C279.228 11.9721 279.63 13.4686 279.63 15.5263C279.63 17.397 279.228 19.6417 278.222 21.3253C277.217 23.0089 275.81 24.6925 274 26.0019C272.191 27.3114 269.979 28.2467 267.566 28.9949C264.953 29.7432 262.339 29.9303 259.323 29.9303H251.884C251.683 30.4914 252.487 27.4984 252.487 26.9372ZM256.508 1.12238C256.106 1.30945 255.503 1.68358 255.503 2.05771C255.503 2.43183 255.503 3.18009 255.503 3.18009V27.6855C255.503 28.2467 255.704 28.6208 255.905 28.9949C256.106 29.3691 256.508 29.3691 257.112 29.3691C261.133 29.9303 265.355 28.9949 268.974 27.1243C269.979 26.5631 270.984 26.189 271.789 25.4407C273.598 24.1313 274.804 22.6348 275.609 21.1382C276.413 19.4547 276.815 17.7711 276.815 15.7134C276.815 13.8427 276.413 11.9721 275.408 10.2885C274.402 8.41788 273.196 6.92137 271.588 5.42486C269.979 4.11541 267.969 2.80596 265.757 2.05771C263.143 1.12238 260.127 0.561192 257.313 0.748256C256.911 1.12238 256.71 1.12238 256.508 1.12238Z" fill="#525252"/>
<path d="M68.9084 15.3086C68.9084 14.4342 68.9084 13.9095 69.2983 13.5597L79.6297 1.66667H76.7057C76.9006 1.84156 76.1209 3.06584 75.926 3.59053C74.5615 6.38889 67.7388 13.2099 67.5439 13.3848C67.1541 13.035 61.1112 6.38889 58.9669 3.94033C58.5771 3.59053 57.6024 2.19136 57.2125 1.84156H53.7038L65.2047 13.7346C65.7895 14.0844 65.9845 14.6091 65.9845 15.3086V27.0267C65.9845 27.7263 65.3997 30 65.3997 30H69.6882C69.6882 29.8251 69.1034 27.7263 69.1034 27.0267L68.9084 15.3086Z" fill="#525252"/>
<path d="M144.445 16.6667H133.333V18.3333H144.445V16.6667Z" fill="#525252"/>
<path d="M287.057 28.5833C286.659 28.5833 286.26 28.4062 286.061 28.0521C285.862 27.875 285.663 27.5208 285.663 27.3438V16.0104C286.26 16.0104 285.464 16.0104 287.853 16.0104C289.845 16.0104 293.23 16.7188 293.23 16.7188V14.5938C293.23 14.5938 289.646 15.125 287.853 15.3021C285.663 15.3021 285.862 15.3021 285.464 15.3021V6.44792C285.464 6.44792 285.464 4.5 285.663 3.96875C285.862 3.61458 285.862 3.4375 286.26 3.26042C286.46 3.08333 286.858 3.08333 287.057 3.08333H288.849C292.433 3.08333 299.602 3.08333 299.602 3.08333L300 1.66667H281.681L282.278 4.32292C282.278 4.85417 282.278 26.2812 282.278 26.8125C282.278 26.9896 281.482 30 281.482 30H299.801L299.602 28.5833C300 28.5833 287.455 28.7604 287.057 28.5833Z" fill="#525252"/>
<path d="M103.704 2.01863L104.09 3.4265C104.09 3.4265 112.577 3.4265 113.735 3.4265C114.313 3.4265 115.278 3.4265 115.664 3.60248C115.857 3.77847 115.857 3.95445 116.049 4.13043C116.242 4.65838 116.242 6.5942 116.242 6.5942C116.242 6.5942 116.242 24.3685 116.242 25.9524C116.242 27.0083 116.242 26.6563 116.242 27.0083C116.242 27.1843 115.471 30 115.471 30H119.715C119.715 30 118.943 27.1843 118.943 26.8323C118.943 26.4803 118.943 26.4803 118.943 25.6004C118.943 24.1925 118.943 6.41822 118.943 6.41822C118.943 6.41822 118.943 4.4824 119.136 3.95445C119.329 3.60248 119.329 3.4265 119.715 3.25052C119.907 3.07453 120.679 3.07453 121.258 3.07453C122.222 3.07453 131.096 3.07453 131.096 3.07453L131.482 1.66667H103.704V2.01863Z" fill="#525252"/>
<path d="M180.495 33.2329C177.032 33.2329 173.761 32.5315 170.491 31.6546C168.951 31.1285 167.412 30.6024 165.873 30.0763C165.296 29.9009 164.526 29.5502 164.141 29.1995C163.757 28.8487 163.564 28.3226 163.564 28.1473C163.564 27.9719 163.564 27.6212 163.564 27.0951V4.82329C163.757 4.12182 164.334 1.66667 164.334 1.66667H160.101C160.101 1.66667 160.678 3.94645 160.678 4.64793V26.9197C160.678 27.6212 160.293 28.1473 159.909 28.6734C159.331 29.1995 158.754 29.3748 157.985 29.3748H157.407V29.9009C159.331 29.9009 162.217 29.7256 164.911 30.7778C165.296 30.9532 167.412 31.83 169.336 32.7068C172.799 34.2851 175.301 34.8113 178.187 34.9866C181.457 35.162 184.343 33.5837 187.037 32.0054C184.921 33.0576 182.804 33.2329 180.495 33.2329Z" fill="#525252"/>
<path d="M24.6583 27.7263C22.4709 28.6008 19.488 29.1255 17.1017 29.1255C14.5166 29.1255 12.1303 28.4259 9.94289 27.2016C7.75547 25.9774 6.16461 24.4033 4.97148 22.3045C3.77834 20.3807 2.98291 17.9321 3.18177 14.9588C3.38062 12.6852 3.97719 11.286 5.17033 9.18724C6.36347 7.26337 7.95432 5.6893 10.1417 4.29012C12.1303 3.06584 14.5166 2.36626 17.3006 2.36626C19.6869 2.36626 22.6697 2.89095 24.8571 3.76543C26.8457 4.46502 28.6354 5.8642 29.232 6.73868L29.6297 5.16461C29.4308 4.81481 27.2434 3.06584 24.0617 2.19136C22.272 1.84156 20.2834 1.66667 18.096 1.66667C14.5166 1.66667 11.3349 2.36626 8.55089 3.76543C5.7669 5.16461 3.77834 6.91358 2.18748 9.18724C0.795487 11.286 6.10352e-05 13.3848 6.10352e-05 15.4835C6.10352e-05 15.4835 6.10352e-05 15.6584 6.10352e-05 15.8333C6.10352e-05 18.107 0.795487 20.3807 2.18748 22.4794C3.57948 24.5782 5.7669 26.5021 8.55089 27.9012C11.3349 29.3004 14.5166 30 18.096 30C20.4823 30 22.272 29.8251 23.8629 29.3004C27.0446 28.4259 29.232 26.8519 29.4308 26.3272L29.0331 24.7531C28.4366 25.6276 26.6468 26.8518 24.6583 27.7263Z" fill="#525252"/>
<path d="M95.8008 2.28923C93.2969 1.58885 91.4189 1.58885 89.541 1.76394C88.4977 1.76394 87.8717 1.93904 87.0371 1.93904C87.2458 2.11414 87.2458 2.28923 87.4544 2.63943C87.8717 2.63943 88.4977 2.63943 88.915 2.63943C91.4189 2.63943 94.5488 2.98962 96.8441 3.86511C98.9307 4.5655 100.809 5.79118 101.435 6.66667L101.852 5.26589C101.852 5.26589 100.183 3.33982 95.8008 2.28923Z" fill="#525252"/>
<path d="M87.4154 29.3985C89.9529 30.0752 91.8559 30.0752 93.759 29.906C94.8162 29.906 95.4506 29.7368 96.2964 29.7368C96.0849 29.5677 96.2964 29.0601 96.2964 28.891C95.8735 28.891 90.5872 29.3985 86.9925 28.0451C85.0895 27.3684 83.3979 26.1842 81.9177 25L81.4948 26.6917C81.2834 26.5226 83.6093 28.3835 87.4154 29.3985Z" fill="#525252"/>
<path d="M208.158 27.7263C205.956 28.6008 202.953 29.1255 200.551 29.1255C197.948 29.1255 195.546 28.4259 193.343 27.2016C191.141 25.9774 189.54 24.4033 188.338 22.3045C187.137 20.3807 186.336 17.9321 186.537 14.9588C186.737 12.5103 187.137 11.1111 188.338 9.18724C189.54 7.26337 191.141 5.6893 193.343 4.29012C195.345 3.06584 197.748 2.36626 200.551 2.36626C202.953 2.36626 205.956 2.89095 208.158 3.76543C210.16 4.46502 211.962 5.8642 212.563 6.73868L212.963 5.16461C212.763 4.81481 210.561 3.06584 207.357 2.19136C205.756 1.84156 203.754 1.66667 201.552 1.66667C197.948 1.66667 194.745 2.36626 191.942 3.76543C189.139 5.16461 187.137 6.91358 185.536 9.18724C184.134 11.286 183.333 13.3848 183.333 15.4835C183.333 15.6584 183.333 15.6584 183.333 15.8333C183.333 18.107 184.134 20.3807 185.536 22.4794C186.937 24.5782 189.139 26.5021 191.942 27.9012C194.745 29.3004 197.948 30 201.552 30C203.954 30 205.756 29.8251 207.357 29.3004C210.561 28.4259 212.763 26.8519 212.963 26.3272L212.563 24.7531C211.962 25.6276 210.16 26.8518 208.158 27.7263Z" fill="#525252"/>
<path d="M55.5556 30L51.5874 27.0083L43.254 16.9772C44.0477 16.9772 44.8413 16.8012 45.4366 16.8012C47.8175 16.4493 49.2064 15.9213 50.7937 14.5135C52.1826 12.9296 52.7778 11.5217 52.7778 9.40994C52.7778 7.29814 51.9842 4.83437 50.3969 3.60248C48.8096 2.3706 46.627 1.66667 44.0477 1.66667H34.5239C34.3255 1.66667 34.3255 1.66667 34.127 1.66667H33.3334L33.9286 4.30642V4.4824C33.9286 4.4824 33.9286 26.6563 33.9286 27.0083C33.7302 27.7122 33.3334 30 33.3334 30H37.6985C37.6985 30 37.3016 27.7122 37.1032 27.0083V3.4265C37.1032 3.07453 37.5001 2.72257 37.8969 2.72257H43.4524C45.2382 2.72257 47.0239 3.25052 48.2143 4.30642C49.4048 5.36232 50.5953 7.29814 50.5953 9.23395C50.5953 11.5217 49.6032 13.4576 47.8175 14.5135C45.635 15.7453 42.4604 15.7453 41.8651 15.7453C41.2699 15.7453 41.0715 15.7453 40.4763 15.7453C40.6747 15.9213 48.0159 25.6004 50.0001 27.8882C50.3969 28.2402 51.7858 30 51.7858 30H55.5556Z" fill="#525252"/>
</svg>
